<svg width="137" height="136" viewBox="0 0 137 136" fill="none" xmlns="http://www.w3.org/2000/svg">
<path d="M48.93 119.619L51.0503 120.596L46.7814 135.5L45.2154 134.774L48.7972 122.067L41.961 133.392L40.395 132.665L44.1701 120.011L37.3339 131.335L35.9355 130.757L44.013 117.486L46.0366 118.437L43.1479 128.534L48.93 119.619Z" fill="#8569C8"/>
<path d="M31.8278 119.733L32.6704 118.508L35.7194 120.663L38.8906 116.125L35.1454 113.475L36.0137 112.153L41.2479 115.82L32.4999 128.499L27.2657 124.833L28.134 123.511L31.8792 126.161L34.8768 121.888L31.8278 119.733Z" fill="#8569C8"/>
<path d="M29.2436 105.699L30.7463 107.443L20.3417 118.958L19.2453 117.633L28.0733 107.768L16.9559 114.955L15.8595 113.629L24.7585 103.887L13.6411 111.074L12.7123 109.896L25.7869 101.574L27.2895 103.318L20.2373 111.171L29.2436 105.699Z" fill="#8569C8"/>
<path d="M13.8086 104.6C11.7548 105.71 9.86715 105.416 8.75716 103.362C7.64718 101.308 8.32821 99.5232 10.382 98.4133L17.3028 94.5608C19.3566 93.4508 21.2443 93.7452 22.3543 95.799C23.4643 97.8527 22.6865 99.612 20.7294 100.748L13.8086 104.6ZM20 99.2089C21.2232 98.4991 21.6732 97.5839 21.0344 96.4831C20.3956 95.3822 19.4035 95.2222 18.1803 95.9319L11.0404 99.8298C9.81721 100.54 9.36723 101.455 10.006 102.556C10.6448 103.656 11.6626 103.72 12.8602 103.107L20 99.2089Z" fill="#8569C8"/>
<path d="M4.19938 93.2532C3.35971 90.9608 4.22797 89.6394 6.30137 88.8451L7.44755 88.4252C9.05735 87.8181 10.2428 88.0295 11.0749 89.1817C10.9511 87.7003 11.91 86.8169 13.3974 86.2808L15.6898 85.441C16.3724 85.2085 16.9583 84.9502 17.28 84.5183L17.8871 86.1282C17.5911 86.4634 17.2242 86.6763 16.2003 87.0252L13.9079 87.8648C12.2981 88.4719 12.0414 89.4385 12.5322 90.707L12.9521 91.8531L19.1209 89.6633L19.728 91.2731L5.19461 96.5181L4.19938 93.2532ZM11.1671 91.1721C10.6763 89.9036 10.0058 89.3117 8.42165 89.8221L7.05649 90.2873C5.78799 90.7781 5.29267 91.4743 5.68683 92.7171L6.29395 94.3269L11.6579 92.4406L11.1671 91.1721Z" fill="#8569C8"/>
<path d="M9.97238 81.6462L11.6607 82.3016L16.768 81.3818L17.0338 83.1079L1.90532 85.9185L1.63954 84.1925L8.93644 82.8196L0.849622 80.1544L0.583847 78.4283L8.18742 80.9652L15.7379 75.521L16.1004 77.2727L9.97238 81.6462Z" fill="#8569C8"/>
<path d="M17.444 55.0738L16.7313 57.3677L1.3656 54.8385L1.89868 53.2211L14.9901 55.3532L2.99046 49.8898L3.52349 48.2724L16.5892 50.5011L4.51858 44.9153L5.00032 43.4913L19.0945 50.0284L18.4075 52.2256L7.97694 50.5934L17.444 55.0738Z" fill="#8569C8"/>
<path d="M15.4624 37.9927L16.8095 38.7644L14.9898 42.1093L19.7785 44.7263L21.9968 40.6595L23.3439 41.4311L20.3026 47.0383L6.70369 39.805L9.74499 34.1978L11.24 34.8019L9.02172 38.8687L13.6428 41.3377L15.4624 37.9927Z" fill="#8569C8"/>
<path d="M17.1943 24.0707C18.8222 22.2268 20.2523 22.2963 21.9285 23.7762L22.5281 24.2458C23.7981 25.3074 24.2436 26.357 23.5943 27.633C24.8688 26.73 26.1962 27.186 27.4663 28.2476L28.4721 29.1355C30.245 30.6411 30.4142 32.3415 28.8829 34.2111L26.5151 36.8931L14.9231 26.7784L17.1943 24.0707ZM27.6129 33.1495C28.4751 32.2404 28.2939 31.3644 27.2171 30.3542L26.2114 29.4663C24.967 28.308 23.9945 28.4636 23.0808 29.566L22.0706 30.6428L26.4546 34.3938L27.6129 33.1495ZM21.7595 28.6977C22.6474 27.692 22.7562 26.8931 21.6084 25.7605L20.9379 25.1686C19.9322 24.2806 19.1333 24.1719 18.271 25.081L17.2094 26.351L20.9939 29.6325L21.7595 28.6977Z" fill="#8569C8"/>
<path d="M25.142 16.3523C27.0085 14.7787 28.5805 15.0928 30.0831 16.8369L30.8699 17.7702C31.9663 19.0961 32.1671 20.2876 31.4468 21.4413C32.8376 20.8795 33.9461 21.3809 34.9458 22.6811L36.5194 24.5475C36.9966 25.0882 37.4029 25.5065 37.9571 25.7572L36.6312 26.8535C36.1737 26.6285 35.935 26.3583 35.2192 25.5473L33.6456 23.6808C32.5492 22.3549 31.6024 22.4138 30.4245 23.3426L29.4913 24.1294L33.7348 29.1883L32.409 30.2847L22.6125 18.4741L25.142 16.3523ZM29.3991 22.139C30.4547 21.2812 30.7824 20.4371 29.686 19.1112L28.7572 17.9333C27.8994 16.8778 27.0296 16.6468 25.9997 17.4079L24.6738 18.5042L28.2726 22.8745L29.3991 22.139Z" fill="#8569C8"/>
<path d="M32.3512 11.0244L40.6995 24.0023L39.3026 24.9764L30.9287 12.0951L32.3512 11.0244Z" fill="#8569C8"/>
<path d="M43.6608 22.2022L42.2443 22.8607L35.4605 9.05667L37.3663 8.1143L45.491 16.4803L40.5919 6.48778L41.9118 5.80368L48.6955 19.6077L47.1311 20.4338L38.052 10.9865L43.6608 22.2022Z" fill="#8569C8"/>
<path d="M53.6032 5.80494L53.9974 7.04781L52.4133 7.55823L52.0447 6.21879C51.6763 4.87931 50.9091 4.26167 49.6663 4.65583C48.5201 5.07567 48.1668 6.01648 48.5609 7.25931L50.9456 15.0319C51.314 16.3714 52.1779 17.0147 53.3241 16.5948C54.5669 16.2007 54.8236 15.2342 54.4295 13.9914L53.5505 11.0678L52.0887 11.5073L51.6492 10.0455L54.6951 9.09553L56.0392 13.3843C56.6856 15.6253 56.1012 17.436 53.8602 18.0824C51.6192 18.7287 50.1558 17.6158 49.4128 15.3491L47.0991 7.69878C46.4528 5.45775 47.0371 3.64711 49.2781 3.00073C51.4935 2.45099 52.9569 3.56391 53.6032 5.80494Z" fill="#8569C8"/>
<path d="M77.8275 16.2743L75.5532 15.8772L76.2657 0.339385L77.9344 0.67916L77.3291 13.8656L81.3941 1.28763L83.0628 1.6274L82.3609 14.7882L86.4259 2.21026L87.9013 2.49863L83.0525 17.2482L80.7783 16.8511L81.1994 6.30582L77.8275 16.2743Z" fill="#8569C8"/>
<path d="M94.4298 12.1996L93.8514 13.598L90.3781 12.2616L88.412 17.3266L92.7295 18.9907L92.1255 20.4858L86.2163 18.192L91.7869 3.84111L97.6961 6.13485L97.0921 7.62992L92.7746 5.96584L90.8598 10.8376L94.4298 12.1996Z" fill="#8569C8"/>
<path d="M100.208 25.1157L109.652 12.9317L111.019 14.019L102.514 25.0039L106.04 27.6994L105.101 28.8985L100.208 25.1157Z" fill="#8569C8"/>
<path d="M116.057 27.7732L114.95 28.8243L112.345 26.1665L108.432 29.9903L111.682 33.3366L110.575 34.3877L106.203 29.8121L117.227 19.0824L121.599 23.658L120.492 24.7091L117.242 21.3627L113.477 25.0188L116.057 27.7732Z" fill="#8569C8"/>
<path d="M115.195 35.3043L112.265 36.5955L111.362 35.3209L125.694 28.8845L127.12 30.9186L116.161 42.1829L115.187 40.786L117.356 38.4649L115.195 35.3043ZM116.514 34.6201L118.463 37.4139L124.743 30.9081L116.514 34.6201Z" fill="#8569C8"/>
<path d="M130.979 37.4272L120.042 45.49L133.192 41.947L133.851 43.3635L118.704 47.4109L117.646 45.1639L130.249 35.8884L130.979 37.4272Z" fill="#8569C8"/>
<path d="M130.151 54.1761L128.689 54.6156L127.578 51.0094L122.291 52.6057L123.609 56.9911L122.148 57.4306L120.344 51.3644L135.059 46.9953L136.862 53.0615L135.4 53.501L134.082 49.1156L129.04 50.5699L130.151 54.1761Z" fill="#8569C8"/>
<path d="M72.9751 8.05316C73.265 8.13017 73.5036 8.40053 73.4976 8.81279C73.4916 9.22505 73.0989 9.53463 72.809 9.45762C68.3254 9.19796 63.8101 9.44722 59.3598 10.2311C58.9218 10.3217 58.5866 10.0257 58.5669 9.71003C58.4763 9.27209 58.7723 8.93688 59.0879 8.91724C63.6349 8.15907 68.2725 7.83885 72.8528 8.12418C72.8784 8.02753 72.8784 8.02749 72.9751 8.05316Z" fill="#8569C8"/>
<path d="M9.53114 58.7663C9.91773 58.869 10.1307 59.236 10.0537 59.5259C9.17637 64.7766 8.97563 70.2071 9.4318 75.5016C9.42576 75.9139 9.2264 76.2748 8.81414 76.2688C8.40187 76.2627 8.04098 76.0634 8.04702 75.6511C7.51988 70.2343 7.74625 64.7072 8.64921 59.3598C8.75189 58.9732 9.04789 58.6379 9.53114 58.7663Z" fill="#8569C8"/>
<path d="M129.84 58.853C130.13 58.93 130.272 59.1747 130.317 59.3936C131.84 68.0754 131.372 76.8492 129.061 85.5476C120.333 118.408 86.4509 138.069 53.5903 129.341C53.2037 129.239 52.9907 128.872 53.0934 128.485C53.1961 128.099 53.5631 127.886 53.9497 127.988C86.0371 136.511 119.16 117.372 127.708 85.1883C129.942 76.7798 130.358 68.1992 128.907 59.6398C128.816 59.2019 129.112 58.8666 129.524 58.8727C129.647 58.8017 129.743 58.8273 129.84 58.853Z" fill="#8569C8"/>
</svg>
