<svg width="139" height="139" viewBox="0 0 139 139" fill="none" xmlns="http://www.w3.org/2000/svg">
<path d="M78.2001 16L76.6001 15.8L75.8 3.29999L74 15.4L72.5 15.2L74.7001 0L77.1001 0.299988L77.8 12.8L82 1L84.4 1.29999L82.2001 16.5L80.6001 16.3L82.4 4L78.2001 16Z" fill="#7C58CC"/>
<path d="M86.5 14.8L84.9 17.5L83.4 17L91.3 3.39996L93.6001 4.19995L91.3 19.7L89.7001 19.1L90.2001 16L86.5 14.8ZM87.2001 13.4L90.4 14.5L91.7001 5.5L87.2001 13.4Z" fill="#7C58CC"/>
<path d="M98.1001 15.8L96.6001 16.7L94.1001 21.2L92.6001 20.4L100.1 6.89996L101.6 7.69995L98 14.2L105.2 9.69995L106.7 10.5L99.9 14.7L99.4 24L97.9 23.1L98.1001 15.8Z" fill="#7C58CC"/>
<path d="M110 21.5L109 22.7L106 20.4L102.6 24.7L106.2 27.5L105.2 28.7L100.2 24.8L109.7 12.7L114.7 16.6L113.7 17.8L110.1 15L106.9 19.1L110 21.5Z" fill="#7C58CC"/>
<path d="M119.4 31.4L118.2 32.4L115.8 29.5L111.6 33L114.5 36.6L113.3 37.6L109.3 32.7L121.2 22.9L125.2 27.8L124 28.8L121.1 25.2L117 28.5L119.4 31.4Z" fill="#7C58CC"/>
<path d="M115.1 40.2L114.3 38.9L127.6 31.1L128.7 33L120.9 41.7L130.5 36.1L131.3 37.4L118 45.2L117.1 43.7L125.8 34L115.1 40.2Z" fill="#7C58CC"/>
<path d="M132.1 49.1L124.7 51.9C123.8 52.2 123 52.2999 122.2 52.1999C121.9 52.4999 121.9 52.8 122.1 53.3L122.2 53.5L120.8 54L120.7 53.6999C120.4 52.7999 120.5 52.1 120.9 51.5C120.5 51.2 120.1 50.6 119.8 49.9C119 47.7 120 46.0999 122.2 45.1999L129.6 42.4C131.8 41.6 133.6 42.1 134.5 44.3C135.3 46.6 134.3 48.2 132.1 49.1ZM130.3 44L122.7 46.9C121.4 47.4 120.8 48.2 121.3 49.4C121.7 50.6 122.7 50.8 124 50.3L131.6 47.4C132.9 46.9 133.5 46.1 133 44.9C132.6 43.8 131.6 43.5 130.3 44Z" fill="#7C58CC"/>
<path d="M125.6 56C124.2 56.3 123.5 57 123.8 58.2C124 59.4 125 59.8 126.3 59.5L137.8 57.1L138.1 58.7L126.7 61C124.4 61.5 122.7 60.7 122.2 58.4C121.7 56.1 123 54.7 125.3 54.3L136.7 52L137 53.7L125.6 56Z" fill="#7C58CC"/>
<path d="M138.8 64.1L123.5 65.4L123.4 63.7L138.7 62.4L138.8 64.1Z" fill="#7C58CC"/>
<path d="M138.9 71.3C138.8 73.7 137.6 74.7 135.3 74.6H134C132.3 74.6 131.3 73.9 130.9 72.6C130.4 74 129.3 74.5 127.6 74.4L125.2 74.3C124.5 74.3 123.9 74.3 123.3 74.6V72.9C123.7 72.7 124.1 72.6 125.2 72.7L127.6 72.8C129.3 72.8 129.9 72 129.9 70.6V69.4L123.3 69.2V67.5L138.7 67.9L138.9 71.3ZM131.7 70.6C131.7 72 132.1 72.8 133.7 72.8H135.2C136.6 72.8 137.3 72.4 137.4 71.1V69.4L131.7 69.2V70.6Z" fill="#7C58CC"/>
<path d="M128.2 79.6L138.5 78.2L138.2 80L130.3 80.9L137.3 84.7L137 86.3L127.9 81.2L122.5 80.2L122.8 78.5L128.2 79.6Z" fill="#7C58CC"/>
<path d="M111.8 103L112.8 101.7L124.1 107.2L114.4 99.7L115.3 98.5L127.5 107.9L126 109.8L114.7 104.3L122.9 113.8L121.4 115.7L109.2 106.3L110.2 105L120 112.6L111.8 103Z" fill="#7C58CC"/>
<path d="M108.8 110.9L107.2 108.2L108.4 107.2L116.4 120.7L114.5 122.3L102.1 112.7L103.4 111.6L105.9 113.5L108.8 110.9ZM109.6 112.1L107 114.4L114.2 119.9L109.6 112.1Z" fill="#7C58CC"/>
<path d="M102.2 120.5V118.7L99.5 114.3L101 113.4L109.1 126.5L107.6 127.4L103.7 121.1L104.1 129.6L102.6 130.5L102.2 122.5L94.4 117.5L95.9 116.6L102.2 120.5Z" fill="#7C58CC"/>
<path d="M91.4 128.1L90.8 126.7L94.3 125.3L92.2001 120.2L87.9 122L87.3 120.6L93.1001 118.2L99 132.4L93.2001 134.8L92.6001 133.4L96.9 131.6L94.9 126.7L91.4 128.1Z" fill="#7C58CC"/>
<path d="M78.1001 131.4L77.8 129.9L81.5 129.2L80.5 123.8L76 124.6L75.7001 123.1L81.9 122L84.6001 137.2L78.4 138.3L78.1001 136.8L82.6001 136L81.7001 130.8L78.1001 131.4Z" fill="#7C58CC"/>
<path d="M72.6001 123.3H74.1001L74.4 138.7H72.2001L68.4 127.6L68.6001 138.7H67.1001L66.8 123.3H68.6001L72.8 135.7L72.6001 123.3Z" fill="#7C58CC"/>
<path d="M56.5 133.8L57.7 125.9C57.8 125 58.2001 124.2 58.6001 123.6C58.5001 123.2 58.2 123.1 57.7 123H57.5L57.7 121.5H58C59 121.6 59.5 122.1 59.8 122.8C60.3 122.6 61 122.5 61.7 122.6C64 122.9 65.0001 124.6 64.6001 126.9L63.4 134.8C63.1 137.1 61.7 138.5 59.4 138.1C57.1 137.8 56.2 136.2 56.5 133.8ZM61.8 134.7L63 126.6C63.2 125.2 62.7 124.3 61.5 124.1C60.3 123.9 59.6 124.6 59.4 126L58.2 134.1C58 135.5 58.4 136.4 59.7 136.6C60.9 136.8 61.6 136.1 61.8 134.7Z" fill="#7C58CC"/>
<path d="M53.7001 124.8C54.1001 123.5 53.9001 122.5 52.7001 122.1C51.5001 121.7 50.7001 122.4 50.3 123.7L46.7001 134.9L45.2001 134.4L48.8 123.3C49.5 121.1 51 119.9 53.3 120.6C55.5 121.3 56.1 123.1 55.4 125.4L51.8 136.5L50.2001 136L53.7001 124.8Z" fill="#7C58CC"/>
<path d="M40.2001 132.3L46.5 118.3L48.1001 119L41.8 133L40.2001 132.3Z" fill="#7C58CC"/>
<path d="M33.8001 128.8C31.7001 127.6 31.5001 126 32.7001 124L33.3001 122.9C34.2001 121.4 35.2001 120.9 36.6001 121.2C35.6001 120.1 35.7001 118.9 36.6001 117.4L37.8001 115.3C38.2001 114.7 38.5 114.2 38.5 113.6L40 114.5C39.9 115 39.8001 115.4 39.3001 116.2L38.1001 118.3C37.2001 119.8 37.6001 120.7 38.8001 121.4L39.8001 122L43.2001 116.4L44.7001 117.3L36.8001 130.5L33.8001 128.8ZM37.9001 122.9C36.7001 122.2 35.8001 122.2 34.9001 123.6L34.1001 124.9C33.4001 126.1 33.4 127 34.5 127.6L35.9001 128.5L38.8001 123.6L37.9001 122.9Z" fill="#7C58CC"/>
<path d="M31.8 115.4L27.9 125.1L26.5 124L29.5 116.7L22.8 120.9L21.6001 119.9L30.5 114.5L34.1001 110.3L35.4 111.4L31.8 115.4Z" fill="#7C58CC"/>
<path d="M19.5 89.7L20.1001 91.2L9.80005 98.3L21.1001 93.5L21.7001 94.9L7.5 100.9L6.6001 98.7L16.9 91.6L4.6001 94.1L3.70007 91.9L17.9 85.9L18.5 87.4L7.1001 92.2L19.5 89.7Z" fill="#7C58CC"/>
<path d="M14.1001 83.2L17.3 83.1L17.6001 84.6L1.90002 84.9L1.40002 82.5L15.9 76.4L16.3 78.1L13.4 79.3L14.1001 83.2ZM12.6001 83.3L11.9 79.9L3.6001 83.4L12.6001 83.3Z" fill="#7C58CC"/>
<path d="M8.90002 72.7L10.5 73.5L15.7001 73.3L15.8 75L0.400024 75.6L0.300049 73.9L7.70007 73.6L0.100098 69.8L0 68.1L7.20007 71.7L15.4 67.4L15.5 69.2L8.90002 72.7Z" fill="#7C58CC"/>
<path d="M7.70007 59.6L9.20007 59.8L8.80005 63.5L14.2001 64.1L14.7001 59.5L16.3 59.7L15.6001 66L0.300049 64.2L1 57.9L2.6001 58.1L2.1001 62.7L7.30005 63.3L7.70007 59.6Z" fill="#7C58CC"/>
<path d="M11.3 46.4L12.8 46.9L11.6001 50.5L16.8 52.3L18.3 47.9L19.8 48.4L17.7001 54.4L3.20007 49.3L5.30005 43.3L6.80005 43.8L5.30005 48.2L10.3 49.9L11.3 46.4Z" fill="#7C58CC"/>
<path d="M21 45.5L20.3 46.9L6.80005 39.6L7.80005 37.7L19.3 39.9L9.5 34.6L10.2001 33.3L23.7001 40.6L22.9 42.2L10.1001 39.7L21 45.5Z" fill="#7C58CC"/>
<path d="M19.8001 26.3L26.1001 31.1999C26.8001 31.7999 27.4001 32.5 27.6001 33.0999C28.0001 33.1999 28.3001 32.9999 28.6001 32.6999L28.7001 32.5L29.9 33.3999L29.7001 33.5999C29.1001 34.3999 28.4001 34.7 27.7001 34.5C27.6001 35.1 27.4 35.7 26.9 36.3C25.5 38.2 23.5001 38.0999 21.7001 36.6999L15.4 31.8C13.5 30.4 13.1 28.4999 14.5 26.5999C16 24.8999 17.9001 24.9 19.8001 26.3ZM16.4 30.5L22.8001 35.5C23.9001 36.4 24.9001 36.3999 25.7001 35.3999C26.5001 34.3999 26.2001 33.5 25.1001 32.5999L18.7001 27.5999C17.6001 26.6999 16.6001 26.6999 15.8001 27.6999C15.0001 28.6999 15.3 29.7 16.4 30.5Z" fill="#7C58CC"/>
<path d="M29 28.3C29.9 29.3 30.9 29.6 31.8 28.7C32.7001 27.9 32.5001 26.9 31.6001 25.9L23.6001 17.3L24.8 16.2L32.8 24.8C34.4 26.5 34.7 28.4 32.9 30C31.2 31.6 29.3001 31.2 27.7001 29.5L19.7001 20.9L20.9 19.7L29 28.3Z" fill="#7C58CC"/>
<path d="M29.2001 12.9L38.3 25.3L36.9 26.3L27.8 13.9L29.2001 12.9Z" fill="#7C58CC"/>
<path d="M35.2001 8.99999C37.3001 7.79999 38.8 8.39996 39.9 10.4L40.5 11.5C41.3 13 41.3 14.1999 40.4 15.1999C41.8 14.8999 42.9001 15.6 43.7001 17L44.9 19.1C45.2 19.7 45.6001 20.2 46.1001 20.6L44.6001 21.5C44.2001 21.2 43.9 20.9 43.4 20L42.2001 17.9C41.3001 16.4 40.4001 16.3 39.1001 17L38 17.6L41.3 23.3L39.8 24.1L32.2001 10.6999L35.2001 8.99999ZM38.4 15.6C39.6 14.9 40.1001 14.0999 39.2001 12.6999L38.5 11.4C37.8 10.2 37 9.79996 35.9 10.4L34.4 11.1999L37.2001 16.1999L38.4 15.6Z" fill="#7C58CC"/>
<path d="M47.9 13.9L41.4 5.79999L43.1001 5.19995L48 11.5L47.6001 3.59998L49.1001 3L49.5 13.4L51.4 18.6L49.8 19.2L47.9 13.9Z" fill="#7C58CC"/>
<path d="M55.2002 10.3001C55.1002 10.3001 55.0001 10.2001 54.9001 10.1001C54.9001 9.9001 55.0002 9.80011 55.1002 9.80011C59.8002 8.70011 64.6001 8.1001 69.5001 8.1001C69.7001 8.1001 69.8002 8.20009 69.8002 8.40009C69.8002 8.60009 69.7001 8.70007 69.5001 8.70007C64.7001 8.60007 59.9002 9.20011 55.2002 10.3001Z" fill="#7C58CC"/>
<path d="M26.0002 112.4C25.9002 112.4 25.9002 112.4 25.8002 112.3C22.5002 108.9 19.5003 105.1 17.1003 101.1C17.0003 101 17.1002 100.8 17.2002 100.7C17.3002 100.6 17.5003 100.7 17.6003 100.8C20.0003 104.8 22.9002 108.5 26.2002 111.9C26.3002 112 26.3002 112.2 26.2002 112.3C26.2002 112.4 26.1002 112.4 26.0002 112.4Z" fill="#7C58CC"/>
<path d="M123.2 98.7002H123.1C123 98.6002 122.9 98.5002 123 98.3002C125 94.5002 126.7 90.5002 127.9 86.4002C127.9 86.3002 128.1 86.2002 128.3 86.2002C128.4 86.2002 128.5 86.4002 128.5 86.6002C127.3 90.7002 125.6 94.8002 123.6 98.6002C123.4 98.7002 123.3 98.7002 123.2 98.7002Z" fill="#7C58CC"/>
</svg>
