<svg width="1920" height="4016" viewBox="0 0 1920 4016" fill="none" xmlns="http://www.w3.org/2000/svg">
<g opacity="0.4">
<path d="M-151.287 48.5352C-109.608 153.157 -46.1131 250.5 42.129 316.343C130.263 382.073 244.88 413.345 349.728 385.37C423.969 365.583 488.767 318.504 560.836 291.439C640.287 261.644 726.141 257.096 810.476 256.754C923.465 256.186 1038.95 263.123 1143.8 307.246C1298.58 372.407 1418.84 521.037 1454.98 691.729C1491.12 862.421 1442.06 1050.28 1328.1 1177.99C1246.26 1269.65 1137.29 1328.33 1038.73 1399.74C950.491 1463.77 869.629 1539.05 798.645 1623.43C728.312 1707.01 666.445 1801.85 638.767 1909.43C611.09 2017.12 621.293 2139.37 684.354 2229.21C754.904 2329.62 875.599 2373.4 988.045 2414.34C1365.33 2551.83 1725.46 2730.59 2096.55 2884.12C2215.84 2933.47 2332.84 3023.99 2380.17 3153.52C2412.94 3243.24 2417.5 3341.83 2409.69 3437.59C2404.91 3496.72 2395.36 3555.85 2374.74 3611.12C2326.55 3739.96 2218.55 3838.67 2095.36 3888.59C1972.17 3938.52 1835.19 3942.72 1705.05 3919.07C1605.85 3900.99 1515.54 3843.68 1445.86 3767.71C1368.37 3683.33 1312.25 3579.96 1251.36 3482.5C1098.21 3237.44 815.903 3082.21 537.392 3107.69C439.49 3116.67 343.759 3146.35 245.531 3149.31C112.571 3153.4 -23.537 3104.96 -117.966 3006.82C-212.395 2908.68 -260.152 2759.82 -229.327 2624.27" stroke="url(#paint0_linear)" stroke-miterlimit="10"/>
<path d="M-232.8 2640.53C-261.78 2772.79 -215.542 2917.66 -124.37 3014.1C-33.1971 3110.53 98.135 3153.52 226.971 3158.18C326.392 3161.7 425.814 3133.39 525.995 3122.13C630.193 3110.42 732.979 3117.35 831.424 3145.33C928.892 3172.96 1024.19 3221.86 1102.77 3293.39C1162.14 3347.41 1210.22 3411.89 1250.06 3481.94C1308.02 3583.83 1364.89 3691.63 1445.75 3777.15C1515.33 3850.73 1604.11 3906.33 1701.69 3923.96C1769.42 3936.13 1838.99 3940.68 1907.48 3935.33C1968.48 3930.56 2028.72 3917.93 2085.92 3895.53C2207.59 3848 2313.85 3753.04 2364.54 3628.75C2386.79 3574.16 2398.83 3514.46 2404.59 3454.42C2408.6 3413.02 2409.58 3371.06 2406.32 3329.78C2401.98 3274.74 2391.02 3220.72 2370.4 3170.46C2352.6 3127.13 2326.44 3088.81 2296.7 3053.1C2256.54 3005 2210.63 2963.04 2162.54 2930.29C2141.16 2915.73 2119.24 2902.88 2097.31 2891.62C2068.66 2876.95 2040.11 2862.17 2011.13 2846.93C1891.96 2784.16 1763.77 2719.22 1633.63 2661C1528.68 2614.03 1422.31 2570.93 1316.05 2531.59C1209.46 2491.67 1101.36 2456.08 992.17 2421.73C877.227 2385.91 754.687 2345.2 680.989 2242.63C670.352 2227.84 661.126 2212.04 653.094 2195.43C612.935 2111.74 608.268 2009.73 630.952 1918.07C658.196 1807.99 721.582 1711.22 796.257 1630.82C806.46 1619.9 816.771 1609.1 827.408 1598.64C877.119 1549.17 930.628 1504.59 987.177 1462.18C1006.61 1447.62 1026.47 1433.06 1046.44 1418.85C1084.21 1392.01 1122.74 1365.74 1158.56 1338.11C1201.32 1305.24 1240.51 1272.26 1276.65 1234.51C1291.41 1219.16 1305.52 1202.9 1319.09 1185.72C1394.96 1088.49 1442.06 959.424 1452.7 831.035C1456.61 784.183 1455.52 737.331 1448.68 691.73C1444.89 666.598 1439.35 641.921 1432.19 617.812C1390.72 478.279 1292.17 355.236 1158.34 295.078C1088.99 264.033 1013.88 250.728 938.117 245.61C898.067 242.995 858.341 243.109 819.376 244.473C734.173 247.885 649.947 258.119 571.256 292.008C527.081 310.885 485.293 337.154 441.986 359.443C415.503 372.976 388.368 385.143 359.822 393.218C278.31 416.416 190.176 404.476 114.09 365.47C90.7544 353.53 68.6124 339.087 48.0985 322.826C33.4458 311.226 19.6614 298.831 6.41962 285.639C-59.6806 219.91 -109.934 135.985 -145.969 47.3984" stroke="url(#paint1_linear)" stroke-miterlimit="10"/>
<path d="M-236.165 2656.79C-263.299 2785.86 -218.581 2926.65 -130.773 3021.26C-42.9655 3115.99 83.6994 3161.93 208.519 3166.82C309.46 3170.8 412.247 3149.99 514.707 3136.46C621.51 3122.24 724.73 3121.45 825.237 3142.94C924.876 3164.09 1025.93 3208.44 1105.92 3283.04C1166.27 3339.33 1210.98 3408.13 1248.86 3481.25C1304 3587.69 1361.53 3699.93 1445.75 3786.36C1515.11 3857.66 1602.48 3911.45 1698.54 3928.62C1765.18 3940.45 1833.67 3944.89 1900.97 3939.88C1960.99 3935.45 2020.25 3923.51 2076.69 3902.13C2196.73 3856.87 2301.47 3765.89 2354.55 3645.92C2378.43 3592.02 2393.08 3531.86 2399.7 3470.79C2404.37 3428.72 2405.24 3385.96 2401 3344.22C2395.47 3289.3 2382.99 3235.96 2360.63 3187.06C2341.09 3144.3 2312.76 3107.12 2282.7 3070.61C2242.1 3021.37 2199.77 2976.34 2156.47 2940.97C2137.15 2925.28 2117.61 2911.29 2097.96 2898.79C2072.35 2882.52 2046.63 2866.26 2020.03 2849.2C1910.63 2779.04 1782.44 2706.26 1650.24 2646.56C1543.55 2598.45 1434.14 2558.31 1325.71 2522.94C1217.5 2487.69 1107.22 2458.47 996.077 2428.9C878.638 2398.08 754.361 2360.44 677.299 2255.93C666.445 2241.04 656.785 2225.11 648.427 2208.28C606.531 2123.79 600.67 2019.97 622.921 1926.49C649.73 1813.91 714.636 1715.2 793.761 1637.98C804.506 1627.52 815.36 1617.4 826.431 1607.51C878.747 1561.34 934.319 1520.74 992.821 1480.14C1012.9 1466.15 1033.41 1452.05 1053.93 1437.73C1092.79 1410.77 1131.53 1383.03 1165.51 1353.35C1205.99 1318.09 1239.96 1283.29 1271.98 1243.95C1285.01 1227.91 1297.71 1211.08 1309.86 1193.12C1378.24 1092.25 1423.72 959.765 1439.13 830.694C1444.78 783.5 1446.19 736.875 1442.06 691.274C1439.78 666.142 1435.99 641.465 1430.45 617.243C1398.65 477.142 1308.34 347.047 1172.67 282.455C1102.77 249.476 1025.93 235.603 948.754 230.826C907.509 228.325 867.242 229.121 828.059 231.964C742.096 238.104 659.498 254.48 581.567 292.348C537.935 313.5 496.473 341.361 452.732 365.015C426.14 379.343 398.679 392.194 369.808 400.836C286.884 425.854 196.688 415.165 119.951 373.998C96.3985 361.376 74.365 346.137 53.9597 328.966C39.4155 316.798 25.7397 303.72 12.6064 290.074C-52.951 221.501 -103.639 135.985 -140.868 46.0332" stroke="url(#paint2_linear)" stroke-miterlimit="10"/>
<path d="M-239.529 2673.05C-264.819 2798.83 -221.621 2935.52 -137.069 3028.54C-52.517 3121.56 69.4807 3166.59 190.067 3175.69C292.42 3183.31 398.679 3166.82 503.419 3150.9C612.718 3134.18 716.481 3125.65 819.159 3140.67C920.968 3155.34 1027.77 3195.14 1109.07 3272.81C1170.5 3331.49 1211.74 3404.49 1247.67 3480.69C1299.88 3591.67 1358.05 3708.35 1445.75 3795.8C1514.89 3864.83 1600.75 3916.8 1695.39 3933.51C1760.95 3945.11 1828.24 3949.32 1894.45 3944.66C1953.39 3940.45 2011.78 3929.19 2067.46 3909.06C2185.99 3866.19 2289.21 3779.08 2344.56 3663.54C2370.07 3610.32 2387.22 3549.6 2394.82 3487.74C2400.03 3444.98 2400.9 3401.42 2395.79 3359.23C2389.07 3304.53 2375.06 3251.88 2350.97 3204.23C2329.69 3162.16 2299.3 3125.88 2268.91 3088.58C2227.88 3038.2 2189.14 2989.87 2150.5 2952.12C2133.35 2935.29 2116.09 2920.28 2098.72 2906.52C2076.04 2888.78 2053.25 2870.81 2029.04 2852.05C1929.51 2774.26 1801.22 2693.75 1667.06 2632.8C1558.63 2583.56 1446.3 2546.03 1335.59 2514.87C1225.75 2483.94 1113.41 2461.2 1000.09 2436.75C880.266 2410.82 753.71 2376.59 673.825 2269.81C662.646 2254.8 652.769 2238.76 643.977 2221.7C600.453 2136.41 593.181 2030.77 615.106 1935.59C641.372 1820.5 707.798 1719.86 791.373 1645.94C802.552 1636.05 813.949 1626.38 825.671 1617.17C880.483 1574.19 938.117 1537.68 998.682 1498.91C1019.41 1485.6 1040.58 1471.73 1061.53 1457.4C1101.36 1430.22 1140.43 1401.22 1172.45 1369.38C1210.77 1331.74 1239.53 1295.12 1267.42 1254.18C1278.71 1237.58 1289.89 1220.07 1300.75 1201.42C1361.53 1096.91 1405.49 961.016 1425.67 831.263C1433.05 783.842 1436.85 737.331 1435.66 691.843C1435.01 666.825 1432.73 642.148 1428.93 617.812C1406.68 477.028 1324.84 339.769 1187.21 270.97C1116.88 235.83 1038.3 221.616 959.717 217.181C917.169 214.792 876.359 216.384 837.068 220.478C750.237 229.576 669.375 251.751 592.095 293.713C549.006 317.139 507.761 346.593 463.803 371.611C437.102 386.735 409.316 400.268 380.01 409.593C295.784 436.431 203.418 426.992 126.029 383.665C102.259 370.36 80.3346 354.325 60.0378 336.358C45.6022 323.621 32.0348 309.975 19.0101 295.76C-46.0047 224.459 -97.1265 137.35 -135.549 45.9199" stroke="url(#paint3_linear)" stroke-miterlimit="10"/>
<path d="M-242.894 2689.2C-266.339 2811.68 -224.66 2944.39 -143.364 3035.7C-62.0683 3127.02 55.2622 3171.6 171.616 3184.33C275.596 3195.82 385.112 3183.31 492.131 3165.23C603.926 3146.12 708.232 3129.75 812.972 3138.28C916.952 3146.46 1029.62 3181.72 1112.21 3262.46C1174.62 3323.41 1212.5 3400.74 1246.37 3480C1295.64 3595.54 1354.47 3716.76 1445.54 3805.12C1514.35 3871.88 1598.9 3922.03 1692.03 3938.29C1756.5 3949.55 1822.71 3953.64 1887.72 3949.32C1945.68 3945.45 2003.1 3934.88 2058.02 3915.89C2174.92 3875.29 2276.94 3792.16 2334.36 3681.06C2361.5 3628.52 2381.14 3567.34 2389.72 3504.45C2395.58 3460.9 2396.34 3416.55 2390.26 3374.02C2382.44 3319.43 2366.71 3267.46 2340.98 3221.06C2317.86 3179.56 2285.41 3144.42 2254.8 3106.32C2213.34 3054.81 2178.17 3003.29 2144.31 2962.92C2129.33 2945.07 2114.35 2928.81 2099.27 2913.91C2079.62 2894.58 2059.65 2875.13 2037.83 2854.43C1948.07 2769.03 1819.78 2680.79 1683.67 2618.47C1573.61 2568.09 1458.13 2533.18 1345.25 2506.34C1233.89 2479.84 1119.27 2463.7 1003.89 2444.02C881.569 2423.1 753.167 2392.05 670.026 2283.11C658.521 2268.1 648.319 2251.84 639.201 2234.55C594.049 2148.47 585.475 2041 606.965 1944C632.798 1826.42 700.634 1723.84 788.659 1653.11C800.382 1643.67 812.212 1634.69 824.477 1626.04C881.677 1586.24 941.591 1553.83 1004.11 1516.87C1025.49 1504.14 1047.31 1490.6 1068.8 1476.16C1109.61 1448.87 1148.9 1418.39 1179.18 1384.5C1215.11 1344.36 1238.88 1306.04 1262.54 1263.51C1272.2 1246.22 1281.86 1228.03 1291.3 1208.81C1344.49 1100.55 1387.03 961.356 1411.78 830.921C1420.9 783.272 1427.19 736.875 1428.82 691.388C1429.69 666.369 1429.15 641.692 1426.87 617.243C1414.17 475.777 1340.69 331.581 1201.22 258.232C1130.34 221.046 1050.02 206.49 970.028 202.283C926.287 200.122 884.933 202.396 845.425 207.741C757.726 219.795 678.492 247.77 601.973 293.826C559.425 319.413 518.398 350.458 474.222 376.955C447.413 392.876 419.302 407.09 389.562 416.984C304.033 445.641 209.605 437.453 131.565 392.079C107.686 378.206 85.7616 361.262 65.5734 342.384C51.2463 329.079 37.7874 314.864 24.9798 300.081C-39.4923 226.05 -91.0482 137.235 -130.665 44.3271" stroke="url(#paint4_linear)" stroke-miterlimit="10"/>
<path d="M-246.259 2705.46C-267.858 2824.64 -227.699 2953.26 -149.659 3042.87C-71.7284 3132.48 41.152 3176.83 153.273 3193.09C258.881 3208.44 371.762 3200.03 480.952 3179.56C595.243 3157.95 700.2 3133.84 807.002 3135.78C913.153 3137.48 1031.57 3168.19 1115.58 3252C1178.97 3315.22 1213.48 3396.87 1245.39 3479.32C1291.85 3599.41 1351.22 3725.07 1445.75 3814.45C1514.13 3879.16 1597.49 3927.37 1688.99 3943.07C1752.38 3953.98 1817.39 3957.85 1881.32 3953.87C1938.19 3950.34 1994.74 3940.45 2048.9 3922.48C2164.28 3884.27 2265.01 3805.01 2324.48 3698.34C2353.36 3646.49 2375.5 3584.74 2384.83 3520.94C2391.34 3476.71 2392.1 3431.56 2384.94 3388.57C2375.93 3334.22 2358.67 3282.81 2331.21 3237.78C2306.25 3196.84 2271.73 3162.73 2240.8 3123.84C2198.91 3071.18 2167.32 3016.48 2138.23 2973.61C2125.32 2954.62 2112.73 2937.22 2099.92 2921.07C2083.2 2900.15 2066.05 2879.11 2046.84 2856.71C1966.85 2763.57 1838.56 2667.71 1700.39 2604.03C1588.59 2552.4 1470.18 2520.22 1355.02 2497.59C1242.13 2475.41 1125.24 2465.97 1007.91 2451.07C883.088 2435.15 752.842 2407.18 666.553 2296.3C654.831 2281.18 644.303 2264.8 634.751 2247.29C587.971 2160.52 578.094 2051.13 599.15 1952.42C624.549 1832.33 693.688 1727.82 786.38 1660.39C798.536 1651.52 811.018 1642.99 823.826 1635.14C883.522 1598.52 945.607 1570.21 1010.19 1535.07C1032.22 1523.01 1054.69 1509.71 1076.61 1495.27C1118.51 1467.75 1158.02 1435.91 1186.45 1399.97C1220.1 1357.44 1238.66 1317.3 1258.2 1273.17C1266.12 1255.21 1274.26 1236.44 1282.4 1216.54C1328.1 1104.64 1369.02 962.039 1398.54 830.922C1409.28 783.046 1418.18 736.762 1422.53 691.389C1424.91 666.37 1426 641.693 1425.46 617.13C1422.42 474.982 1357.19 323.849 1215.87 246.065C1144.56 206.832 1062.5 191.821 981.099 187.955C936.164 185.908 894.159 188.979 854.542 195.688C766.083 210.585 688.478 244.36 612.609 294.623C570.605 322.371 529.794 355.122 485.402 382.983C458.484 399.7 430.047 414.483 399.873 425.059C313.042 455.536 216.442 448.599 137.752 401.064C113.656 386.508 91.8397 368.768 71.76 348.981C57.5414 335.107 44.2997 320.21 31.4921 304.858C-32.4373 228.098 -84.3189 137.578 -125.238 43.3047" stroke="url(#paint5_linear)" stroke-miterlimit="10"/>
<path d="M-249.623 2721.73C-269.378 2837.72 -230.738 2962.24 -156.063 3050.15C-81.3882 3138.05 26.9336 3182.4 134.713 3201.96C242.058 3221.41 358.086 3216.86 469.555 3194C586.452 3170.01 691.843 3138.05 800.707 3133.5C909.029 3128.73 1033.2 3154.77 1118.51 3241.76C1182.87 3307.38 1214.02 3393.12 1243.98 3478.75C1287.5 3603.39 1347.42 3733.6 1445.54 3823.89C1513.48 3886.43 1595.65 3932.72 1685.62 3947.96C1747.93 3958.53 1811.86 3962.28 1874.59 3958.65C1930.49 3955.46 1986.06 3946.25 2039.46 3929.42C2153.32 3893.49 2252.96 3818.32 2314.28 3715.86C2345 3664.68 2369.42 3602.48 2379.73 3537.66C2386.89 3492.74 2387.65 3446.8 2379.51 3403.36C2369.42 3349.11 2350.43 3298.39 2321.45 3254.73C2294.64 3214.36 2258.17 3181.38 2226.91 3141.69C2184.58 3087.9 2156.58 3030.02 2132.26 2984.64C2121.52 2964.52 2111.21 2946.09 2100.68 2928.69C2087 2906.18 2072.67 2883.55 2055.85 2859.33C1985.73 2758.46 1857.33 2655.09 1717.21 2590.04C1603.68 2537.27 1482.33 2507.71 1364.89 2489.4C1250.49 2471.54 1131.32 2468.81 1011.92 2458.69C884.608 2447.89 752.516 2422.99 662.971 2309.95C650.924 2294.71 640.07 2278.22 630.193 2260.48C581.784 2172.92 570.605 2061.7 591.227 1961.29C616.191 1838.7 686.633 1732.14 783.884 1668.01C796.583 1659.71 809.499 1651.74 822.849 1644.47C884.934 1611.03 949.189 1586.81 1015.83 1553.61C1038.52 1542.23 1061.74 1529.16 1084.1 1514.6C1126.98 1486.97 1166.81 1453.76 1193.29 1415.66C1224.66 1370.75 1238.12 1328.78 1253.53 1283.07C1259.83 1264.53 1266.45 1244.97 1273.18 1224.5C1311.27 1108.96 1350.67 962.949 1384.97 831.149C1397.45 783.046 1408.85 736.876 1416.01 691.502C1419.92 666.484 1422.64 641.807 1423.72 617.244C1430.23 474.527 1373.36 316.344 1230.2 234.125C1158.34 192.845 1074.55 177.379 991.736 173.854C945.607 171.921 903.059 175.787 863.226 183.748C773.898 201.602 698.03 241.176 622.812 295.42C581.459 325.328 540.757 359.784 496.039 389.01C469.013 406.523 440.25 421.989 409.75 433.133C321.617 465.429 222.846 459.743 143.504 410.048C119.192 394.81 97.4839 376.274 77.5127 355.691C63.4027 341.135 50.2695 325.783 37.5704 309.862C-25.9248 230.372 -78.132 138.146 -120.354 42.5088" stroke="url(#paint6_linear)" stroke-miterlimit="10"/>
<path d="M-252.988 2737.87C-270.897 2850.57 -233.777 2971.11 -162.358 3057.2C-90.9396 3143.39 12.8236 3187.97 116.261 3210.49C225.234 3234.26 344.518 3233.23 458.267 3208.21C577.66 3181.72 683.594 3142.03 794.629 3131C905.122 3119.74 1035.15 3141.23 1121.77 3231.3C1187.11 3299.19 1214.89 3389.25 1242.89 3477.96C1283.6 3607.14 1343.84 3742.01 1445.65 3833.1C1513.16 3893.6 1594.02 3937.83 1682.59 3952.62C1743.8 3962.85 1806.54 3966.49 1868.3 3963.19C1923.22 3960.24 1977.81 3951.82 2030.45 3936.13C2142.68 3902.58 2241.34 3831.28 2304.51 3733.25C2336.97 3682.76 2363.78 3619.99 2375.06 3554.26C2382.88 3508.66 2383.53 3461.81 2374.41 3418.03C2363.23 3364.01 2342.5 3313.97 2311.89 3271.56C2283.24 3231.87 2244.71 3199.91 2213.12 3159.31C2170.36 3104.39 2145.94 3043.44 2126.29 2995.45C2117.61 2974.18 2109.69 2954.62 2101.44 2936.08C2090.69 2911.98 2079.3 2887.87 2064.86 2861.83C2004.51 2753.11 1876 2642.23 1734.03 2575.82C1618.77 2521.92 1494.49 2494.86 1374.77 2480.87C1258.85 2467.34 1137.4 2471.32 1015.94 2465.97C886.128 2460.28 752.19 2438.34 659.498 2323.25C647.233 2308.02 636.054 2291.3 625.743 2273.33C575.598 2184.97 563.224 2071.93 583.304 1969.7C607.725 1844.72 679.578 1736.01 781.496 1675.17C794.629 1667.32 808.088 1659.93 822.09 1653.34C886.67 1622.97 953.096 1602.96 1021.69 1571.57C1045.03 1560.77 1068.91 1548.03 1091.7 1533.48C1135.66 1505.73 1175.71 1471.04 1200.35 1430.9C1229.44 1383.59 1237.68 1339.81 1248.97 1292.51C1253.53 1273.29 1258.63 1253.16 1264.06 1231.89C1294.56 1112.6 1332.44 963.29 1371.51 830.921C1385.73 782.59 1399.62 736.534 1409.61 691.274C1415.15 666.37 1419.49 641.693 1422.2 616.902C1438.26 473.502 1389.75 308.383 1244.74 221.615C1172.45 178.288 1086.92 162.481 1002.7 159.183C955.375 157.478 912.177 162.026 872.235 171.238C782.039 192.048 707.798 237.308 633.34 295.76C592.53 327.829 552.045 363.991 507.11 394.582C479.975 412.89 450.887 429.038 419.953 440.751C330.517 474.867 229.576 470.432 149.583 418.576C125.053 402.769 103.454 383.323 83.591 361.83C69.5894 346.706 56.5648 330.671 43.9743 314.296C-18.9783 232.418 -71.6197 138.487 -115.035 41.4844" stroke="url(#paint7_linear)" stroke-miterlimit="10"/>
<path d="M-256.353 2754.14C-272.417 2863.53 -236.707 2979.98 -168.654 3064.47C-100.6 3148.97 -1.28661 3194.11 97.9179 3219.36C208.628 3247.56 331.059 3250.06 447.088 3222.66C568.977 3193.66 675.453 3146.24 788.551 3128.73C901.106 3110.99 1037 3127.93 1124.91 3221.07C1191.34 3291.34 1215.65 3385.62 1241.59 3477.39C1279.36 3611.01 1340.04 3750.65 1445.54 3842.54C1512.51 3900.99 1592.28 3943.18 1679.22 3957.51C1739.35 3967.4 1801 3970.93 1861.57 3967.97C1915.4 3965.36 1969.13 3957.62 2021.01 3942.95C2131.72 3911.79 2229.51 3844.59 2294.31 3750.77C2328.72 3700.96 2357.81 3637.73 2369.96 3571.09C2378.43 3524.7 2379.08 3477.16 2368.99 3432.81C2356.72 3379.02 2334.14 3329.55 2302.02 3288.5C2271.41 3249.38 2231.03 3218.45 2199.12 3177.17C2155.92 3121.11 2134.98 3056.97 2120.21 3006.36C2113.7 2984.08 2108.06 2963.38 2102.09 2943.48C2094.38 2917.78 2085.81 2892.08 2073.87 2864.22C2023.4 2747.65 1894.78 2629.27 1750.75 2561.61C1633.74 2506.57 1506.43 2482.12 1384.54 2472.45C1267.1 2463.13 1143.36 2473.93 1019.85 2473.36C887.538 2472.68 751.756 2453.92 655.808 2336.67C643.217 2321.32 631.712 2304.49 621.075 2286.3C569.302 2197.14 555.518 2082.28 575.272 1978.35C599.259 1850.87 672.414 1740.1 778.891 1682.68C792.458 1675.28 806.46 1668.58 821.004 1662.66C887.973 1635.48 956.678 1619.45 1027.23 1590C1051.22 1579.87 1075.74 1567.37 1099.08 1552.81C1144.02 1524.83 1184.39 1488.9 1207.08 1446.6C1233.89 1396.79 1237.03 1351.3 1244.2 1302.4C1247.13 1282.5 1250.71 1261.69 1254.73 1239.86C1277.74 1116.92 1313.99 964.314 1357.84 831.149C1373.79 782.478 1390.18 736.649 1402.99 691.389C1410.04 666.484 1416.01 641.807 1420.46 616.903C1446.19 472.821 1405.92 300.878 1259.07 209.562C1186.24 164.302 1099.08 147.926 1013.33 144.856C964.818 143.264 921.077 148.609 880.918 159.184C789.962 183.065 717.349 233.898 643.651 296.557C603.384 330.786 563.224 368.655 517.963 400.723C490.72 419.828 461.306 436.658 429.938 449.054C339.2 484.989 236.088 481.805 155.444 427.902C130.697 411.413 109.097 391.057 89.5605 368.768C75.6675 353.075 62.7513 336.472 50.3779 319.528C-12.1405 234.466 -65.216 138.829 -109.825 40.4619" stroke="url(#paint8_linear)" stroke-miterlimit="10"/>
<path d="M-259.718 2770.4C-273.936 2876.61 -239.747 2988.96 -175.057 3071.75C-110.26 3154.54 -15.5053 3200.37 79.3577 3228.11C191.804 3260.98 317.383 3266.78 435.691 3237.1C560.076 3205.71 667.096 3150.44 782.364 3126.34C897.09 3102 1038.73 3114.51 1128.06 3210.72C1195.46 3283.27 1216.41 3381.86 1240.4 3476.7C1275.35 3614.87 1336.35 3759.3 1445.43 3851.86C1511.96 3908.38 1590.54 3948.41 1675.96 3962.28C1735.01 3971.84 1795.47 3975.25 1854.95 3972.63C1907.8 3970.36 1960.55 3963.31 2011.57 3949.77C2120.65 3920.89 2217.79 3857.89 2284.11 3768.28C2320.36 3719.27 2351.73 3655.36 2364.86 3587.81C2373.98 3540.73 2374.63 3492.4 2363.45 3447.59C2350.1 3393.92 2325.68 3345.25 2292.03 3305.33C2259.58 3266.89 2217.14 3236.98 2184.9 3194.8C2141.27 3137.59 2123.9 3070.27 2113.92 3017.17C2109.47 2993.74 2106.21 2971.91 2102.52 2950.87C2097.75 2923.69 2092.1 2896.28 2082.55 2866.72C2042.07 2742.31 1913.23 2616.42 1767.25 2547.39C1648.61 2491.22 1518.26 2469.27 1393.98 2463.92C1275.13 2458.92 1148.9 2476.55 1023.54 2480.64C888.732 2485.08 751.105 2469.27 652.009 2350.09C639.201 2334.63 627.371 2317.68 616.3 2299.26C562.898 2209.31 547.812 2092.63 567.132 1986.99C590.684 1857.01 665.034 1744.08 776.177 1690.07C790.287 1683.24 804.832 1676.99 819.919 1671.76C889.275 1647.65 960.259 1635.82 1032.76 1608.19C1057.4 1598.75 1082.58 1586.47 1106.35 1571.8C1152.26 1543.71 1192.86 1506.3 1213.81 1461.95C1238.44 1409.75 1236.38 1362.44 1239.31 1312.07C1240.51 1291.6 1242.57 1270.1 1245.28 1247.59C1260.7 1121.02 1295.43 964.995 1343.94 831.148C1361.64 782.249 1380.52 736.534 1396.04 691.388C1404.62 666.483 1412.22 641.806 1418.29 616.788C1453.57 472.024 1421.66 293.258 1272.96 197.393C1199.59 150.086 1110.69 133.369 1023.65 130.526C973.827 129.048 929.543 135.302 889.275 147.015C797.451 173.853 726.467 230.485 653.528 297.238C613.803 333.628 573.861 373.202 528.383 406.635C501.14 426.536 471.292 444.049 439.598 457.013C347.557 494.767 242.275 492.834 160.979 436.771C136.124 419.599 114.524 398.448 95.0959 375.363C81.3114 359.101 68.6124 341.816 56.2389 324.417C-5.62822 236.626 -59.0294 139.396 -104.941 39.5508" stroke="url(#paint9_linear)" stroke-miterlimit="10"/>
<path d="M-263.082 2786.55C-275.456 2889.46 -242.786 2997.72 -181.353 3078.8C-119.811 3159.88 -29.7239 3206.74 61.0146 3236.76C175.089 3274.51 303.925 3283.38 424.511 3251.31C551.393 3217.43 658.955 3154.54 776.286 3123.84C893.182 3093.02 1040.69 3100.98 1131.32 3200.26C1199.7 3275.08 1217.28 3378 1239.31 3476.02C1271.33 3618.74 1332.66 3767.94 1445.54 3861.19C1511.42 3915.66 1589.03 3953.64 1672.93 3967.06C1730.89 3976.27 1790.26 3979.46 1848.54 3977.3C1900.31 3975.25 1952.2 3968.99 2002.45 3956.6C2110.01 3930.1 2206.39 3871.2 2274.23 3785.68C2312.55 3737.46 2346.08 3672.98 2359.98 3604.41C2369.75 3556.65 2370.4 3507.52 2358.24 3462.26C2343.8 3408.82 2317.65 3360.83 2282.37 3322.16C2247.96 3284.41 2203.57 3255.52 2171.12 3212.54C2127.05 3154.2 2113.27 3083.81 2108.06 3028.08C2105.78 3003.64 2104.8 2980.66 2103.39 2958.26C2101.65 2929.49 2098.94 2900.49 2091.67 2869.22C2061.17 2736.96 1932.12 2603.69 1784.18 2533.18C1663.81 2475.87 1530.52 2456.31 1403.97 2455.51C1283.6 2454.71 1155.09 2479.16 1027.66 2488.03C890.36 2497.59 750.888 2484.74 648.536 2363.51C635.402 2347.93 623.246 2330.87 611.85 2312.11C556.82 2221.36 540.431 2102.87 559.317 1995.4C582.435 1862.92 658.087 1747.84 773.898 1697.35C788.442 1690.98 803.529 1685.29 819.159 1680.74C891.012 1659.82 964.058 1652.09 1038.73 1626.27C1064.02 1617.4 1089.85 1605.46 1114.17 1590.79C1161.16 1562.48 1201.98 1523.81 1221.08 1477.3C1243.44 1422.71 1236.17 1373.47 1234.97 1321.62C1234.54 1300.47 1234.97 1278.29 1236.38 1255.21C1244.2 1124.89 1277.41 965.565 1330.7 831.036C1350.13 781.909 1371.4 736.421 1389.86 691.161C1399.95 666.257 1409.28 641.58 1416.99 616.562C1461.82 471.115 1438.26 285.412 1287.72 184.999C1213.81 135.758 1123.28 118.473 1034.72 115.971C983.704 114.72 938.877 121.657 898.392 134.621C805.808 164.415 736.344 226.733 664.165 297.694C624.983 336.245 585.257 377.525 539.563 412.323C512.211 433.019 482.037 451.214 449.909 464.747C356.566 504.321 249.113 503.639 167.166 445.415C142.093 427.675 120.602 405.613 101.283 381.619C87.6067 364.788 75.0162 346.934 62.7513 328.967C1.42679 238.446 -52.4085 139.511 -99.5144 38.1875" stroke="url(#paint10_linear)" stroke-miterlimit="10"/>
<path d="M-266.447 2802.81C-276.975 2902.42 -245.825 3006.7 -187.648 3086.08C-129.471 3165.46 -44.0508 3213.45 42.5632 3245.63C158.157 3288.5 290.358 3300.1 413.224 3265.87C542.71 3229.59 650.707 3158.86 770.208 3121.67C889.275 3084.37 1042.53 3087.79 1134.46 3190.13C1203.82 3267.35 1218.04 3374.47 1238.12 3475.57C1267.21 3622.83 1328.86 3776.81 1445.54 3870.74C1510.88 3923.39 1587.29 3959.21 1669.67 3972.06C1726.54 3981.05 1784.72 3984 1841.92 3982.07C1892.72 3980.37 1943.62 3974.79 1993.12 3963.42C2099.05 3939.2 2194.89 3884.61 2264.14 3803.19C2304.41 3755.77 2340.11 3690.61 2354.98 3621.13C2365.4 3572.57 2366.06 3522.65 2352.81 3477.05C2337.4 3423.71 2309.29 3376.52 2272.6 3339.1C2236.24 3302.03 2190.01 3274.06 2157.12 3230.28C2112.62 3170.8 2102.31 3097.22 2101.87 3038.89C2101.65 3013.3 2103.07 2989.19 2103.93 2965.65C2105.13 2935.29 2105.34 2904.7 2100.46 2871.61C2079.95 2731.5 1950.68 2590.72 1800.68 2518.96C1678.57 2460.51 1542.35 2443.45 1413.52 2446.98C1291.63 2450.39 1160.84 2481.78 1031.35 2495.42C891.554 2510.09 750.345 2500.2 644.737 2376.93C631.387 2361.35 618.905 2344.06 607.074 2325.07C550.308 2233.53 532.725 2113.22 551.176 2004.05C573.753 1869.06 650.707 1751.7 771.185 1704.74C786.163 1698.82 801.793 1693.82 818.074 1689.84C892.314 1671.99 967.64 1668.46 1044.27 1644.47C1070.21 1636.28 1096.69 1624.56 1121.44 1609.78C1169.41 1581.35 1210.55 1541.21 1227.7 1492.65C1247.78 1435.68 1235.41 1384.62 1230.09 1331.17C1227.92 1309.45 1226.94 1286.59 1227.05 1262.83C1227.37 1128.86 1258.96 966.133 1317.03 830.921C1338.19 781.567 1361.96 736.193 1383.24 691.047C1394.96 666.256 1405.81 641.579 1415.15 616.333C1469.63 470.318 1454.33 277.678 1301.83 172.716C1227.37 121.429 1135.12 103.689 1045.25 101.528C993.038 100.391 947.56 108.124 906.967 122.452C813.515 155.317 745.678 223.207 674.26 298.262C635.62 338.973 596.112 381.959 550.091 418.121C522.631 439.614 492.131 458.492 459.57 472.593C364.815 513.986 255.299 514.555 172.701 454.284C147.412 435.862 126.03 413.004 106.818 388.213C93.2509 370.814 80.7689 352.392 68.7211 333.742C7.9393 240.493 -46.2216 139.851 -94.6299 37.1631" stroke="url(#paint11_linear)" stroke-miterlimit="10"/>
<path d="M-269.812 2819.07C-278.495 2915.5 -248.864 3015.57 -193.943 3093.24C-139.022 3170.91 -58.3779 3220.15 24.1116 3254.27C141.117 3302.6 276.79 3316.7 401.827 3280.08C533.81 3241.31 642.349 3162.84 763.913 3119.17C885.151 3075.39 1044.16 3074.25 1137.5 3179.67C1207.95 3259.16 1218.69 3370.6 1236.71 3474.77C1262.97 3626.59 1324.73 3785.57 1445.32 3879.95C1510.01 3930.67 1585.44 3964.33 1666.31 3976.84C1722.09 3985.48 1779.19 3988.33 1835.19 3986.73C1885.01 3985.37 1934.94 3980.48 1983.67 3970.24C2088.09 3948.41 2183.38 3898.15 2253.93 3820.7C2296.27 3774.19 2334.04 3708.35 2349.88 3637.96C2360.95 3588.72 2361.61 3538 2347.39 3491.94C2330.89 3438.84 2300.82 3392.33 2262.73 3356.16C2224.3 3319.77 2176.22 3292.82 2143.12 3248.24C2098.18 3187.63 2091.45 3110.87 2095.79 3050.03C2097.75 3023.31 2101.33 2998.18 2104.59 2973.38C2108.71 2941.43 2111.86 2909.25 2109.47 2874.45C2098.94 2726.5 1969.45 2578.21 1817.5 2505.09C1693.66 2445.5 1554.51 2430.83 1423.4 2438.91C1299.99 2446.53 1166.92 2484.73 1035.48 2503.16C893.183 2522.94 750.128 2516.01 641.264 2390.8C627.588 2375.11 614.78 2357.6 602.624 2338.49C544.23 2246.27 525.344 2124.02 543.362 2013.14C565.504 1875.66 643.652 1756.02 768.906 1712.58C784.427 1707.24 800.49 1702.69 817.422 1699.51C894.051 1684.84 971.656 1685.4 1050.24 1663.23C1076.83 1655.61 1103.97 1644.24 1129.25 1629.45C1178.21 1600.8 1219.67 1559.4 1234.97 1508.69C1252.77 1449.32 1235.19 1396.44 1225.75 1341.4C1221.95 1319 1219.34 1295.46 1218.15 1271.13C1210.88 1133.53 1241.05 967.384 1303.79 831.49C1326.69 781.908 1352.95 736.648 1377.05 691.502C1390.29 666.711 1402.77 642.034 1413.84 616.675C1477.88 469.977 1470.83 270.514 1316.59 161.003C1241.7 107.783 1147.71 89.5877 1056.43 87.6544C1003.02 86.631 957.003 95.2736 916.193 110.739C821.873 146.561 755.664 220.137 685.005 299.399C646.799 342.271 607.617 386.849 561.379 424.49C533.81 446.779 502.877 466.338 470.098 481.008C374.041 524.221 262.355 526.041 179.105 463.609C153.599 444.504 132.325 420.851 113.222 395.15C99.7632 377.069 87.4983 358.078 75.4505 338.973C15.1029 242.767 -39.6007 140.42 -89.0944 36.3672" stroke="url(#paint12_linear)" stroke-miterlimit="10"/>
<path d="M-273.176 2835.22C-280.014 2928.35 -251.903 3024.44 -200.347 3100.41C-148.682 3176.37 -72.922 3227.09 5.6602 3263.03C123.968 3317.04 263.223 3333.42 390.539 3294.53C525.019 3253.36 634.1 3167.05 757.835 3116.9C881.244 3066.63 1046.11 3060.95 1140.65 3169.44C1212.07 3251.2 1219.45 3366.97 1235.51 3474.2C1258.85 3630.57 1320.83 3794.55 1445.21 3889.39C1509.36 3938.29 1583.71 3969.68 1663.05 3981.73C1717.75 3990.03 1773.65 3992.76 1828.57 3991.51C1877.3 3990.49 1926.47 3986.28 1974.34 3977.18C2077.23 3957.62 2171.99 3911.91 2243.84 3838.22C2288.23 3792.62 2328.18 3726.09 2344.89 3654.68C2356.61 3604.75 2357.37 3553.12 2341.96 3506.73C2324.49 3453.73 2292.47 3408.13 2252.85 3373.11C2212.47 3337.4 2162.44 3311.47 2129.12 3265.98C2083.75 3204.23 2080.49 3124.4 2089.72 3060.95C2093.73 3033.2 2099.7 3006.82 2105.24 2980.78C2112.29 2947.23 2118.48 2913.46 2118.37 2876.84C2117.94 2721.04 1988.12 2565.25 1834.22 2490.76C1708.64 2430.04 1566.56 2417.75 1433.16 2430.26C1308.24 2441.98 1172.89 2487.24 1039.38 2510.32C894.594 2535.34 749.803 2531.25 637.682 2403.99C623.789 2388.19 610.656 2370.56 598.066 2351.23C538.044 2258.21 517.855 2134.25 535.439 2021.44C557.146 1881.57 636.488 1759.55 766.409 1719.75C782.365 1714.86 799.08 1710.99 816.446 1708.38C895.462 1696.78 975.347 1701.55 1055.88 1681.31C1083.13 1674.37 1111.02 1663.23 1136.64 1648.45C1186.67 1619.68 1228.46 1576.8 1241.7 1524.04C1257.44 1462.29 1234.54 1407.59 1220.86 1350.96C1215.33 1327.87 1211.31 1303.76 1208.71 1278.63C1193.84 1137.28 1222.49 967.839 1290 831.263C1314.64 781.454 1343.4 736.307 1370.21 691.275C1384.97 666.484 1399.19 641.807 1411.89 616.334C1485.48 468.954 1486.78 262.668 1330.7 148.495C1255.27 93.3409 1159.54 74.5772 1066.85 72.9852C1012.25 72.0754 965.687 81.5141 924.659 98.2308C829.796 137.236 765.107 216.271 695.208 299.854C657.545 344.887 618.579 391.171 572.125 430.176C544.447 453.261 513.188 473.503 479.975 488.741C382.616 533.774 268.867 536.731 184.858 472.252C159.134 452.579 137.969 428.016 118.975 401.405C105.625 382.755 93.4682 363.196 81.5289 343.522C21.8325 244.814 -33.1967 140.762 -83.9929 35.2305" stroke="url(#paint13_linear)" stroke-miterlimit="10"/>
<path d="M-276.541 2851.48C-281.643 2941.32 -254.942 3033.43 -206.642 3107.69C-158.342 3181.95 -87.4666 3234.26 -12.7918 3271.78C106.601 3331.83 249.655 3350.02 379.251 3308.86C516.227 3265.19 625.851 3171.14 751.648 3114.4C877.227 3057.65 1047.85 3047.42 1143.8 3158.97C1216.19 3243.13 1220.21 3363.1 1234.32 3473.52C1254.83 3634.43 1316.92 3803.53 1445.21 3898.72C1508.71 3945.8 1581.97 3974.91 1659.79 3986.51C1713.3 3994.47 1768.22 3996.97 1821.95 3996.17C1869.71 3995.38 1917.9 3991.97 1965 3983.89C2066.27 3966.72 2160.7 3925.55 2233.75 3855.62C2280.31 3811.04 2322.21 3743.6 2339.9 3671.28C2352.27 3620.67 2353.03 3568.25 2336.64 3521.28C2318.19 3468.4 2284.22 3423.6 2243.08 3389.71C2200.75 3354.8 2148.87 3329.67 2115.11 3283.5C2069.31 3220.72 2069.53 3137.6 2083.53 3071.52C2089.61 3042.64 2097.96 3015.23 2105.78 2987.94C2115.87 2952.92 2124.88 2917.44 2127.16 2879.11C2136.82 2715.58 2006.68 2552.28 1850.71 2476.43C1723.4 2414.57 1578.39 2404.68 1442.71 2421.73C1316.27 2437.66 1178.75 2490.08 1043.07 2517.6C895.896 2548.08 749.26 2546.6 633.774 2417.3C619.556 2401.38 606.097 2383.64 593.181 2364.08C531.531 2270.26 509.932 2144.49 527.189 2029.97C548.463 1887.6 629.107 1763.3 763.587 1727.03C779.976 1722.59 797.234 1719.29 815.251 1717.36C896.764 1708.83 978.711 1717.81 1061.42 1699.39C1089.42 1693.14 1117.86 1682.22 1144.02 1667.32C1195.03 1638.44 1237.14 1594.2 1248.54 1539.28C1262 1475.14 1233.89 1418.62 1216.19 1360.4C1208.92 1336.74 1203.39 1311.84 1199.48 1286.14C1177.12 1141.15 1204.15 968.294 1276.32 831.035C1302.7 780.885 1333.96 735.966 1363.59 690.933C1379.87 666.143 1395.72 641.465 1410.04 615.992C1493.29 467.93 1502.52 255.162 1344.92 136.099C1268.84 79.1256 1171.58 59.6796 1077.48 58.4287C1021.58 57.7464 974.478 67.9811 933.342 85.9487C837.502 127.911 774.332 212.632 705.302 300.309C668.181 347.388 629.541 395.491 582.761 435.862C554.975 459.743 523.39 480.667 489.743 496.588C391.081 543.44 275.162 547.647 190.502 481.122C164.669 460.766 143.504 435.407 124.618 408.001C111.377 388.782 99.3289 368.54 87.6067 348.412C28.6701 246.975 -26.6848 141.216 -78.7834 34.3203" stroke="url(#paint14_linear)" stroke-miterlimit="10"/>
<path d="M-279.906 2867.74C-283.162 2954.39 -257.981 3042.3 -212.938 3114.85C-167.894 3187.52 -102.119 3241.42 -31.2434 3280.54C89.0177 3346.95 236.088 3366.74 367.963 3323.19C507.544 3277.02 617.602 3175.24 745.569 3112.01C873.32 3048.78 1049.7 3033.88 1147.05 3148.63C1220.43 3235.05 1221.08 3359.35 1233.23 3472.84C1250.82 3638.19 1313.01 3812.63 1445.32 3908.04C1508.16 3953.3 1580.45 3980.14 1656.75 3991.28C1709.18 3998.9 1762.9 4001.29 1815.55 4000.84C1862.22 4000.38 1909.54 3997.65 1955.89 3990.72C2055.63 3975.82 2149.63 3939.31 2223.87 3873.13C2272.6 3829.69 2316.45 3761.34 2335.01 3688C2348.04 3636.59 2348.8 3583.37 2331.32 3536.07C2311.79 3483.3 2275.97 3439.41 2233.31 3406.65C2188.92 3372.54 2135.19 3348.32 2101.22 3301.24C2054.98 3237.33 2058.67 3151.01 2077.56 3082.44C2085.7 3052.42 2096.44 3023.88 2106.65 2995.45C2119.67 2958.83 2131.72 2921.87 2136.39 2881.61C2156.14 2710.35 2025.68 2539.43 1867.75 2462.22C1738.81 2399.11 1590.65 2391.71 1452.81 2413.21C1324.84 2433.22 1185.04 2492.7 1047.31 2524.88C897.633 2560.36 749.368 2561.72 630.518 2430.72C616.083 2414.68 602.298 2396.83 588.948 2377.04C525.561 2282.43 502.768 2154.84 519.591 2038.62C540.322 1893.74 622.269 1767.06 761.525 1734.53C778.457 1730.55 796.149 1727.82 814.709 1726.69C898.609 1721.23 982.835 1734.42 1067.5 1717.82C1096.15 1712.13 1125.24 1701.55 1151.83 1686.66C1203.93 1657.54 1246.26 1611.94 1255.7 1554.97C1266.88 1488.44 1233.67 1430.11 1211.74 1370.29C1202.84 1345.95 1195.79 1320.48 1190.47 1294.1C1160.51 1145.35 1186.02 969.318 1262.97 831.377C1291.09 780.999 1324.84 736.194 1357.29 691.275C1375.1 666.598 1392.57 641.807 1408.63 616.22C1501.43 467.59 1519.02 247.771 1359.57 124.273C1282.95 65.2525 1184.07 45.4654 1088.44 44.442C1031.35 43.8734 983.704 54.9041 942.35 74.1226C845.642 119.155 783.992 209.221 715.83 301.333C679.144 350.46 640.829 400.382 593.724 442.117C565.829 466.794 533.919 488.287 499.946 504.89C399.982 553.561 281.891 559.02 196.58 490.334C170.53 469.296 149.365 443.14 130.697 414.824C117.563 395.037 105.624 374.227 94.0105 353.53C35.3995 249.25 -20.3895 141.899 -73.6821 33.6387" stroke="url(#paint15_linear)" stroke-miterlimit="10"/>
<path d="M-283.271 2883.89C-284.682 2967.24 -261.02 3051.17 -219.341 3122.02C-177.554 3192.98 -116.989 3248.59 -49.6949 3289.3C71.1089 3362.3 222.521 3383.46 356.675 3337.63C498.752 3289.07 609.462 3179.44 739.383 3109.73C869.304 3040.02 1051.43 3020.58 1150.09 3138.39C1224.44 3227.21 1221.73 3355.59 1231.82 3472.27C1246.59 3642.17 1308.67 3821.84 1445.1 3917.48C1507.19 3961.03 1578.61 3985.48 1653.39 3996.17C1704.73 4003.45 1757.37 4005.73 1808.93 4005.61C1854.62 4005.5 1900.97 4003.45 1946.55 3997.65C2044.67 3985.14 2138.34 3953.3 2213.78 3890.76C2264.79 3848.45 2310.59 3779.08 2330.02 3704.94C2343.7 3652.86 2344.56 3598.84 2326 3551.08C2305.49 3498.54 2267.61 3455.44 2223.54 3423.83C2177.2 3390.51 2121.63 3367.08 2087.22 3319.2C2040.55 3254.16 2047.82 3164.66 2071.48 3093.59C2081.79 3062.43 2094.82 3032.75 2107.3 3003.07C2123.25 2964.86 2138.34 2926.31 2145.29 2884.34C2175.46 2705.35 2044.35 2526.81 1884.47 2448.23C1753.79 2383.98 1602.7 2378.98 1462.58 2405.02C1332.98 2429.13 1191.01 2495.54 1051.32 2532.5C899.152 2573.1 749.043 2577.42 626.937 2444.37C612.284 2428.33 598.065 2410.25 584.389 2390.23C519.375 2294.82 495.279 2165.41 511.56 2047.37C531.857 1899.99 614.997 1770.92 758.92 1742.04C776.286 1738.51 794.521 1736.35 813.732 1735.9C900.02 1733.39 986.526 1750.91 1073.14 1736.12C1102.45 1731.12 1132.19 1720.77 1159.32 1705.76C1212.4 1676.54 1255.05 1629.57 1262.65 1570.44C1271.55 1501.52 1233.23 1441.36 1207.08 1379.96C1196.44 1354.94 1187.87 1328.78 1181.24 1301.83C1143.69 1149.45 1167.68 970 1249.41 831.377C1279.26 780.772 1315.4 736.08 1350.78 691.161C1370.21 666.484 1389.31 641.807 1406.9 615.993C1509.25 466.68 1535.19 240.039 1373.9 111.877C1296.73 50.8103 1196.11 30.5683 1099.19 29.7723C1040.9 29.3174 992.713 41.2579 951.142 61.6136C853.783 109.83 793.544 205.468 726.141 301.674C689.998 352.961 651.901 404.59 604.578 447.689C576.575 473.162 544.338 495.337 509.932 512.509C408.665 563 288.404 569.71 202.441 498.863C176.175 477.256 155.118 450.191 136.558 421.079C123.533 400.723 111.811 379.344 100.197 358.079C42.129 251.069 -14.0941 142.013 -68.5807 32.2741" stroke="url(#paint16_linear)" stroke-miterlimit="10"/>
<path d="M-286.635 2900.15C-286.201 2980.21 -264.059 3060.04 -225.636 3129.29C-187.214 3198.55 -131.967 3255.86 -68.1465 3298.05C52.8744 3378 208.953 3400.17 345.387 3351.95C489.961 3300.9 601.213 3183.54 733.305 3107.35C865.396 3031.15 1053.39 3007.16 1153.35 3128.04C1228.78 3219.13 1222.6 3351.84 1230.74 3471.59C1242.57 3646.03 1304.65 3831.17 1445.21 3926.8C1506.64 3968.65 1577.09 3990.83 1650.24 4000.95C1700.49 4007.89 1751.94 4010.05 1802.41 4010.27C1847.13 4010.5 1892.5 4009.14 1937.33 4004.36C2033.93 3994.13 2127.16 3967.17 2203.79 3908.04C2256.97 3866.99 2304.73 3796.6 2325.14 3721.43C2339.46 3668.66 2340.44 3613.74 2320.69 3565.63C2299.3 3513.09 2259.36 3471.02 2213.88 3440.54C2165.48 3408.02 2108.06 3385.5 2073.43 3336.83C2026.33 3270.65 2037.18 3177.97 2065.62 3104.28C2077.99 3072.09 2093.41 3041.27 2108.17 3010.34C2127.16 2970.54 2145.07 2930.4 2154.4 2886.73C2194.56 2700 2063.23 2513.85 1901.29 2434.02C1768.87 2368.63 1614.75 2365.78 1472.45 2396.49C1341.34 2424.58 1197.09 2498.04 1055.34 2539.77C900.672 2585.49 748.826 2592.88 623.463 2457.67C608.485 2441.52 593.941 2423.33 579.939 2403.08C513.296 2306.88 487.898 2175.65 503.745 2055.9C523.608 1906.02 607.942 1774.22 756.641 1749.31C774.549 1746.24 793.327 1744.77 812.972 1744.88C901.757 1745.45 990.325 1767.17 1079 1754.2C1108.96 1749.88 1139.35 1739.76 1166.92 1724.75C1220.97 1695.3 1263.95 1646.97 1269.7 1585.79C1276.43 1514.37 1232.8 1452.51 1202.63 1389.62C1190.36 1364.04 1180.27 1337.2 1172.24 1309.56C1127.19 1153.54 1149.55 970.682 1236.06 831.376C1267.64 780.544 1306.28 735.966 1344.38 691.161C1365.33 666.484 1386.06 641.807 1405.38 615.992C1517.39 465.997 1551.58 232.419 1388.45 99.8224C1310.73 36.8221 1208.49 16.1253 1110.04 15.5567C1050.56 15.3293 1001.72 27.9521 960.042 49.6724C861.815 100.846 803.204 202.169 736.561 302.47C700.96 355.917 663.08 409.252 615.54 453.716C587.428 479.985 554.867 502.842 520.026 520.582C417.457 572.893 295.025 580.853 208.411 507.846C181.927 485.557 160.979 457.696 142.528 427.674C129.611 406.75 117.998 384.688 106.601 362.854C49.0755 253.115 -7.58177 142.353 -63.2622 31.2499" stroke="url(#paint17_linear)" stroke-miterlimit="10"/>
<path d="M-290 2916.41C-285.333 3070.16 -207.51 3219.59 -86.5981 3306.81C34.3142 3394.03 195.386 3416.78 334.099 3366.4C481.169 3312.95 592.964 3187.75 727.118 3104.96C861.381 3022.28 1055.12 2993.74 1156.5 3117.69C1232.91 3211.06 1223.36 3348.09 1229.54 3470.91C1238.44 3649.9 1300.42 3840.49 1445.1 3936.13C1547.56 4003.91 1674.66 4013.46 1795.79 4014.82C1933.64 4016.41 2079.84 4006.98 2193.7 3925.44C2288.23 3857.78 2365.73 3697.77 2315.37 3580.3C2292.9 3527.99 2251.11 3486.83 2204.12 3457.26C2153.75 3425.65 2094.38 3403.92 2059.43 3354.34C2011.89 3287.02 2026.22 3191.16 2059.43 3114.97C2092.65 3038.77 2142.36 2969.86 2163.2 2889.01C2213.34 2694.55 2081.68 2500.88 1917.9 2419.57C1783.74 2353.05 1626.69 2352.71 1482.11 2387.85C1187.21 2459.6 823.826 2768.81 575.164 2415.94C410.944 2182.81 487.139 1740.67 811.887 1753.98C903.06 1757.73 993.907 1783.54 1084.65 1772.4C1175.28 1761.37 1270.79 1696.66 1276.54 1601.25C1280.99 1527.45 1232.26 1463.77 1197.85 1399.29C1105.05 1224.96 1114.93 996.155 1222.38 831.262C1273.94 752.114 1344.49 688.886 1403.64 615.651C1525.2 464.974 1567.75 224.572 1402.77 87.4272C1324.62 22.38 1220.54 1.22827 1120.79 1.00083C839.998 0.432239 802.01 290.87 626.394 459.515C514.924 566.639 331.168 617.357 214.38 516.716C169.12 477.71 140.465 421.988 112.896 367.744C55.9135 255.276 -1.06945 142.808 -58.0524 30.3403" stroke="url(#paint18_linear)" stroke-miterlimit="10"/>
</g>
<defs>
<linearGradient id="paint0_linear" x1="-239.032" y1="1990.25" x2="2412.96" y2="1990.25" gradientUnits="userSpaceOnUse">
<stop stop-color="#FB3FFF"/>
<stop offset="1" stop-color="#0000FF"/>
</linearGradient>
<linearGradient id="paint1_linear" x1="-241.785" y1="1991.97" x2="2408.23" y2="1991.97" gradientUnits="userSpaceOnUse">
<stop stop-color="#FB3FFF"/>
<stop offset="1" stop-color="#0000FF"/>
</linearGradient>
<linearGradient id="paint2_linear" x1="-244.436" y1="1993.46" x2="2403.7" y2="1993.46" gradientUnits="userSpaceOnUse">
<stop stop-color="#FB3FFF"/>
<stop offset="1" stop-color="#0000FF"/>
</linearGradient>
<linearGradient id="paint3_linear" x1="-247.094" y1="1995.71" x2="2399.16" y2="1995.71" gradientUnits="userSpaceOnUse">
<stop stop-color="#FB3FFF"/>
<stop offset="1" stop-color="#0000FF"/>
</linearGradient>
<linearGradient id="paint4_linear" x1="-249.761" y1="1997.16" x2="2394.43" y2="1997.16" gradientUnits="userSpaceOnUse">
<stop stop-color="#FB3FFF"/>
<stop offset="1" stop-color="#0000FF"/>
</linearGradient>
<linearGradient id="paint5_linear" x1="-252.438" y1="1998.84" x2="2389.98" y2="1998.84" gradientUnits="userSpaceOnUse">
<stop stop-color="#FB3FFF"/>
<stop offset="1" stop-color="#0000FF"/>
</linearGradient>
<linearGradient id="paint6_linear" x1="-255.128" y1="2000.74" x2="2385.32" y2="2000.74" gradientUnits="userSpaceOnUse">
<stop stop-color="#FB3FFF"/>
<stop offset="1" stop-color="#0000FF"/>
</linearGradient>
<linearGradient id="paint7_linear" x1="-257.832" y1="2002.42" x2="2381.04" y2="2002.42" gradientUnits="userSpaceOnUse">
<stop stop-color="#FB3FFF"/>
<stop offset="1" stop-color="#0000FF"/>
</linearGradient>
<linearGradient id="paint8_linear" x1="-260.545" y1="2004.21" x2="2376.39" y2="2004.21" gradientUnits="userSpaceOnUse">
<stop stop-color="#FB3FFF"/>
<stop offset="1" stop-color="#0000FF"/>
</linearGradient>
<linearGradient id="paint9_linear" x1="-263.287" y1="2006" x2="2371.73" y2="2006" gradientUnits="userSpaceOnUse">
<stop stop-color="#FB3FFF"/>
<stop offset="1" stop-color="#0000FF"/>
</linearGradient>
<linearGradient id="paint10_linear" x1="-266.053" y1="2007.55" x2="2367.29" y2="2007.55" gradientUnits="userSpaceOnUse">
<stop stop-color="#FB3FFF"/>
<stop offset="1" stop-color="#0000FF"/>
</linearGradient>
<linearGradient id="paint11_linear" x1="-268.85" y1="2009.39" x2="2362.74" y2="2009.39" gradientUnits="userSpaceOnUse">
<stop stop-color="#FB3FFF"/>
<stop offset="1" stop-color="#0000FF"/>
</linearGradient>
<linearGradient id="paint12_linear" x1="-271.684" y1="2011.25" x2="2358.09" y2="2011.25" gradientUnits="userSpaceOnUse">
<stop stop-color="#FB3FFF"/>
<stop offset="1" stop-color="#0000FF"/>
</linearGradient>
<linearGradient id="paint13_linear" x1="-274.568" y1="2013" x2="2353.57" y2="2013" gradientUnits="userSpaceOnUse">
<stop stop-color="#FB3FFF"/>
<stop offset="1" stop-color="#0000FF"/>
</linearGradient>
<linearGradient id="paint14_linear" x1="-277.537" y1="2014.8" x2="2349.03" y2="2014.8" gradientUnits="userSpaceOnUse">
<stop stop-color="#FB3FFF"/>
<stop offset="1" stop-color="#0000FF"/>
</linearGradient>
<linearGradient id="paint15_linear" x1="-280.564" y1="2016.75" x2="2344.59" y2="2016.75" gradientUnits="userSpaceOnUse">
<stop stop-color="#FB3FFF"/>
<stop offset="1" stop-color="#0000FF"/>
</linearGradient>
<linearGradient id="paint16_linear" x1="-283.707" y1="2017.17" x2="2340.09" y2="2017.17" gradientUnits="userSpaceOnUse">
<stop stop-color="#FB3FFF"/>
<stop offset="1" stop-color="#0000FF"/>
</linearGradient>
<linearGradient id="paint17_linear" x1="-287.012" y1="2012.4" x2="2335.68" y2="2012.4" gradientUnits="userSpaceOnUse">
<stop stop-color="#FB3FFF"/>
<stop offset="1" stop-color="#0000FF"/>
</linearGradient>
<linearGradient id="paint18_linear" x1="-290.376" y1="2007.47" x2="2331.18" y2="2007.47" gradientUnits="userSpaceOnUse">
<stop stop-color="#FB3FFF"/>
<stop offset="1" stop-color="#0000FF"/>
</linearGradient>
</defs>
</svg>
