<svg width="852" height="874" viewBox="0 0 852 874" fill="none" xmlns="http://www.w3.org/2000/svg">
<g opacity="0.3" clip-path="url(#clip0)">
<path d="M-279 26.8999C-279.8 73.2999 -238.4 111.7 -193.6 124C-148.8 136.3 -101.4 128.9 -55.2998 123C-2.29982 116.2 51.9002 111.4 104.3 121.8C156.7 132.2 207.9 159.7 236 205.2C266.7 254.8 266 317.6 256.6 375.2C247.2 432.8 230 489.7 231.1 548C232.1 599 247.5 649.6 275 692.5C286.3 710.1 299.9 726.8 317.6 738C336.3 749.9 358.4 755 380 760.3C434.5 773.5 489.9 789.2 535.1 822.5C580.3 855.7 613.6 910.3 607 966" stroke="url(#paint0_linear)" stroke-miterlimit="10"/>
<path d="M-283.6 31C-284.5 78.1 -243.7 117.6 -198.8 131.2C-196.2 132 -193.5 132.7 -190.8 133.4C-148.3 144.1 -103 138.5 -59.0001 133.2C-53.6001 132.6 -48.3001 131.9 -42.9001 131.3C5.79987 125.7 54.9999 121.7 102.9 129.9C155.8 139.1 207.8 165.1 237.2 210C266.4 254.5 269.6 310.8 264 364.1C263.4 369.4 262.8 374.8 262.1 380.1C257.2 416.4 249.2 452.6 243.4 489C239.9 510.7 237.3 532.4 237.1 554.2C236.9 572.9 238.6 591.6 242.3 610C245.8 627.5 251.3 645 259.1 660.8C261.9 666.4 264.9 671.8 268 677.1C272 683.9 276.4 690.5 281 696.9C292.9 713.4 307.1 729.1 325.1 739.9C344.2 751.3 366.4 756.5 388 762.3C442.5 776.8 495.6 795.5 537.9 830.2C580.2 865 610.5 919.8 603.9 976" stroke="url(#paint1_linear)" stroke-miterlimit="10"/>
<path d="M-288.1 35.2C-289.1 83.1 -248.9 123.6 -204 138.6C-201.3 139.5 -198.7 140.3 -196 141.1C-153.3 153.1 -107.4 148.6 -62.6999 143.6C-57.2999 143 -51.7999 142.4 -46.2999 141.8C3.10011 136.2 52.9001 131.1 101.6 138.3C155 146.2 207.9 170.8 238.6 215.1C269 259 273.4 315.5 269.3 369.1C268.9 374.5 268.4 379.8 267.8 385.1C263.9 421.7 256.9 458.2 250.9 494.9C247.3 516.8 244.1 538.5 243.3 560.4C242.6 579.2 243.7 597.9 246.9 616.4C250 634.1 255.5 652.1 263.9 667.3C266.9 672.7 270.1 677.8 273.5 682.7C277.8 689 282.4 695.2 287.3 701.2C299.9 716.7 314.6 731.4 332.9 741.7C352.4 752.6 374.7 757.9 396.3 764.2C450.7 779.9 501.6 801.6 541 837.9C580.5 874.2 607.7 929.4 601.1 986.1" stroke="url(#paint2_linear)" stroke-miterlimit="10"/>
<path d="M-292.6 39.2998C-293.7 87.8998 -254 129.5 -209.1 145.8C-206.4 146.8 -203.8 147.7 -201.1 148.5C-158.3 161.8 -111.7 158.5 -66.1997 153.7C-60.6997 153.1 -55.0997 152.5 -49.5997 151.9C0.600254 146.4 51.0002 140.2 100.3 146.3C154.2 152.9 207.9 176.1 239.9 219.8C271.5 263.1 277.2 319.9 274.5 373.8C274.2 379.2 273.9 384.6 273.5 389.9C270.6 426.7 264.6 463.6 258.3 500.6C254.6 522.6 250.9 544.4 249.4 566.3C248.2 585.1 248.6 603.9 251.4 622.6C254.1 640.4 259.5 659 268.6 673.6C271.8 678.8 275.3 683.5 278.9 688.1C283.4 693.9 288.3 699.7 293.4 705.2C306.6 719.6 321.9 733.4 340.5 743.2C360.3 753.6 382.8 759 404.4 765.8C458.8 782.8 507.3 807.5 544 845.2C580.6 883 604.8 938.5 598.3 995.7" stroke="url(#paint3_linear)" stroke-miterlimit="10"/>
<path d="M-297.2 43.5C-298.4 92.8 -259.3 135.4 -214.3 153.2C-211.6 154.3 -209 155.2 -206.3 156.1C-163.3 170.7 -116.1 168.6 -69.9001 164.1C-64.3001 163.6 -58.6001 163 -53.0001 162.4C-2.00014 157 48.8999 149.7 98.9999 154.6C153.3 160 208 181.7 241.2 224.8C274 267.5 281 324.6 279.7 378.7C279.6 384.1 279.4 389.5 279.1 394.9C277.2 432 272.2 469.3 265.7 506.5C261.9 528.7 257.6 550.5 255.5 572.5C253.7 591.3 253.6 610.1 255.9 629C258.1 647 263.6 666.1 273.3 680.1C276.8 685.1 280.5 689.4 284.2 693.6C289 699 294.1 704.3 299.5 709.4C313.3 722.7 329.2 735.6 348.1 744.9C368.3 754.8 390.9 760.3 412.4 767.6C466.7 785.8 513 813.5 546.8 852.8C580.6 892.1 601.7 948 595.2 1005.7" stroke="url(#paint4_linear)" stroke-miterlimit="10"/>
<path d="M-301.7 47.5999C-303 97.5999 -264.5 141.3 -219.5 160.5C-216.8 161.6 -214.1 162.7 -211.4 163.7C-168.3 179.6 -120.4 178.6 -73.4999 174.4C-67.7999 173.9 -62.0999 173.3 -56.3999 172.7C-4.69993 167.3 46.8001 159 97.6001 162.8C152.4 166.9 207.9 187.2 242.4 229.7C276.5 271.9 284.6 329.1 284.7 383.5C284.7 389 284.6 394.4 284.5 399.8C283.6 437.1 279.5 474.8 272.9 512.3C268.9 534.7 264.1 556.5 261.4 578.5C259.1 597.4 258.3 616.2 260.2 635.2C262 653.4 267.4 673 277.8 686.5C281.5 691.3 285.4 695.2 289.4 699.1C294.5 704 299.8 708.8 305.4 713.6C319.8 725.8 336.3 737.7 355.5 746.6C376 756 398.8 761.6 420.3 769.4C474.6 788.9 518.6 819.5 549.5 860.4C580.5 901.2 598.5 957.4 592.1 1015.7" stroke="url(#paint5_linear)" stroke-miterlimit="10"/>
<path d="M-306.2 51.7998C-307.6 102.5 -269.7 147.3 -224.6 167.8C-221.9 169 -219.2 170.2 -216.5 171.2C-173.2 188.3 -124.7 188.6 -77.1002 184.7C-71.3002 184.2 -65.5002 183.7 -59.7002 183.1C-7.20021 177.8 44.7998 168.4 96.3998 171.1C151.7 174 208.1 192.8 243.8 234.8C279.1 276.4 288.5 333.9 290 388.6C290.2 394.1 290.2 399.6 290.2 405C290.3 442.6 287.2 480.6 280.3 518.5C276.2 541 270.9 562.9 267.6 584.9C264.7 603.8 263.4 622.7 264.9 641.9C266.3 660.2 271.7 680.4 282.7 693.3C286.6 697.9 290.8 701.5 295 704.9C300.3 709.3 305.9 713.7 311.8 718.1C326.9 729.2 343.8 740.2 363.4 748.7C384.3 757.6 407.2 763.3 428.7 771.5C483 792.2 524.7 825.9 552.8 868.2C580.9 910.5 595.9 967.1 589.5 1025.8" stroke="url(#paint6_linear)" stroke-miterlimit="10"/>
<path d="M-310.8 55.8999C-312.3 107.3 -275 153.2 -229.8 175.1C-227.1 176.4 -224.4 177.6 -221.7 178.8C-178.3 197.2 -129.1 198.7 -80.8 195C-74.9 194.6 -69 194 -63.1 193.5C-9.80004 188.2 42.8 177.8 95 179.3C150.7 181 208 198.3 245 239.7C281.5 280.7 292.2 338.5 295.1 393.4C295.4 398.9 295.6 404.4 295.8 409.9C296.9 447.7 294.8 486.1 287.7 524.3C283.5 547 277.6 568.9 273.7 591C270.3 609.9 268.3 628.9 269.4 648.2C270.4 666.7 275.7 687.4 287.4 699.7C291.6 704.1 296 707.3 300.4 710.4C306 714.4 311.8 718.3 318 722.2C333.7 732.3 351.2 742.3 371.1 750.3C392.4 758.8 415.4 764.5 436.9 773.2C491.1 795.2 530.5 831.8 555.8 875.7C581.1 919.6 593 976.4 586.6 1035.7" stroke="url(#paint7_linear)" stroke-miterlimit="10"/>
<path d="M-315.3 60.0999C-316.9 112.3 -280.2 159.2 -235 182.5C-232.3 183.9 -229.6 185.2 -226.9 186.4C-183.4 206.1 -133.5 208.7 -84.4002 205.4C-78.4002 205 -72.5002 204.5 -66.5002 203.9C-12.5002 198.7 40.6998 187.2 93.6998 187.6C149.9 188.1 208.1 203.9 246.4 244.7C284.1 285.1 296 343.2 300.4 398.3C300.8 403.8 301.2 409.4 301.5 414.9C303.6 453 302.5 491.8 295.1 530.2C290.7 553.1 284.4 575 279.8 597.1C275.9 616.1 273.3 635.1 273.9 654.6C274.4 673.2 279.8 694.4 292.1 706.2C296.5 710.4 301.1 713.2 305.7 716C311.5 719.5 317.7 723 324 726.5C340.3 735.5 358.4 744.6 378.6 752.1C400.2 760.1 423.4 765.9 444.9 775.1C499.1 798.3 536.2 837.9 558.7 883.3C581.1 928.7 590 985.9 583.7 1045.6" stroke="url(#paint8_linear)" stroke-miterlimit="10"/>
<path d="M-319.8 64.2C-321.5 117.1 -285.4 165.1 -240.1 189.7C-237.4 191.2 -234.7 192.5 -232 193.9C-188.3 214.9 -137.7 218.7 -87.9997 215.6C-81.8997 215.2 -75.8997 214.7 -69.7997 214.2C-14.9997 209 38.7002 196.5 92.4002 195.8C149.1 195 208.2 209.3 247.7 249.6C286.7 289.4 299.8 347.7 305.5 403.2C306.1 408.8 306.6 414.3 307 419.9C310.1 458.2 309.9 497.4 302.4 536.1C297.9 559.1 291 581.1 285.8 603.3C281.3 622.3 278.2 641.4 278.3 661C278.4 679.8 283.7 701.5 296.7 712.7C301.3 716.7 306.2 719.1 311 721.5C317.1 724.6 323.5 727.6 330.1 730.7C347.1 738.6 365.7 746.8 386.2 753.8C408.2 761.3 431.5 767.2 453 776.9C507.2 801.4 542 844 561.6 890.9C581.2 937.8 587 995.3 580.7 1055.6" stroke="url(#paint9_linear)" stroke-miterlimit="10"/>
<path d="M-324.4 68.3999C-326.2 122 -290.7 171.1 -245.3 197C-242.6 198.5 -239.9 200 -237.1 201.4C-193.3 223.7 -142 228.7 -91.5998 225.9C-85.4998 225.6 -79.2998 225.1 -73.1998 224.5C-17.6998 219.4 36.6002 205.8 91.0002 203.9C148.1 201.9 208.1 214.7 248.9 254.4C289.1 293.6 303.4 352.2 310.6 407.9C311.3 413.5 312 419.1 312.6 424.7C316.7 463.3 317.5 502.8 309.7 541.8C305.1 565 297.7 587 291.8 609.2C286.8 628.3 283 647.4 282.7 667.2C282.4 686.2 287.6 708.4 301.3 719.1C306.2 722.9 311.2 725 316.3 727C322.7 729.6 329.3 732.2 336.1 734.9C353.7 741.7 372.9 748.9 393.7 755.5C416 762.5 439.5 768.5 461 778.7C515.1 804.4 547.7 850 564.4 898.4C581.1 946.8 583.9 1004.6 577.7 1065.4" stroke="url(#paint10_linear)" stroke-miterlimit="10"/>
<path d="M-328.9 72.5C-330.8 126.8 -295.9 177 -250.5 204.3C-247.8 205.9 -245.1 207.5 -242.3 208.9C-198.3 232.5 -146.4 238.6 -95.3001 236.1C-89.1001 235.8 -82.8001 235.4 -76.6001 234.8C-20.3001 229.7 34.4999 215.1 89.6999 212.1C147.3 208.9 208.2 220.2 250.2 259.3C291.6 297.9 307.2 356.8 315.8 412.7C316.7 418.3 317.5 423.9 318.2 429.6C323.3 468.4 325.1 508.3 317.1 547.7C312.4 571.1 304.4 593.1 298 615.4C292.5 634.5 288.1 653.6 287.3 673.6C286.6 692.7 291.8 715.5 306.1 725.6C311.2 729.2 316.5 730.9 321.7 732.6C328.3 734.7 335.2 736.9 342.3 739.1C360.5 744.8 380.2 751.1 401.3 757.2C424 763.7 447.6 769.8 469.1 780.5C523.2 807.5 553.4 856.1 567.4 906C581.3 955.9 580.9 1014.1 574.8 1075.4" stroke="url(#paint11_linear)" stroke-miterlimit="10"/>
<path d="M-333.4 76.5999C-335.4 131.6 -301.1 182.9 -255.6 211.6C-252.9 213.3 -250.2 214.9 -247.4 216.5C-203.3 241.3 -150.7 248.7 -98.9002 246.4C-92.6002 246.1 -86.3002 245.7 -80.0002 245.2C-22.9002 240.2 32.4998 224.6 88.2998 220.4C146.4 216 208.1 225.8 251.4 264.4C294 302.4 310.9 361.5 320.9 417.8C321.9 423.4 322.9 429.1 323.7 434.8C329.8 473.9 332.6 514.2 324.4 553.8C319.5 577.3 311 599.4 304 621.7C297.9 640.8 292.9 660 291.8 680.2C290.7 699.5 295.8 722.8 310.8 732.3C316.1 735.7 321.7 737 327.1 738.3C334 740 341.1 741.7 348.4 743.5C367.2 748.1 387.5 753.5 408.9 759.1C432 765.1 455.7 771.3 477.2 782.5C531.3 810.7 559.2 862.3 570.3 913.7C581.4 965.1 577.9 1023.6 571.8 1085.5" stroke="url(#paint12_linear)" stroke-miterlimit="10"/>
<path d="M-338 80.7998C-340.1 136.6 -306.4 188.9 -260.9 219C-258.2 220.8 -255.5 222.5 -252.7 224.1C-208.4 250.2 -155.2 258.8 -102.6 256.8C-96.1998 256.6 -89.7998 256.2 -83.3998 255.6C-25.5998 250.6 30.4002 234 87.0002 228.6C145.5 223.1 208.2 231.3 252.7 269.3C296.5 306.7 314.6 366.1 326 422.6C327.1 428.3 328.2 434 329.3 439.7C336.4 479 340.1 519.7 331.7 559.6C326.7 583.3 317.7 605.5 310 627.8C303.4 647 297.8 666.2 296.2 686.5C294.6 705.9 299.8 729.8 315.4 738.7C321 741.9 326.7 742.8 332.4 743.8C339.5 745 346.9 746.3 354.5 747.7C374 751.3 394.8 755.7 416.5 760.8C439.9 766.3 463.8 772.6 485.3 784.3C539.3 813.8 565 868.3 573.2 921.3C581.4 974.3 574.9 1033.1 568.9 1095.4" stroke="url(#paint13_linear)" stroke-miterlimit="10"/>
<path d="M-342.5 84.8999C-344.7 141.4 -311.6 194.8 -266 226.2C-263.3 228.1 -260.6 229.8 -257.8 231.6C-213.4 259 -159.5 268.7 -106.2 267C-99.7 266.8 -93.2 266.4 -86.8 265.9C-28.2 261 28.3 243.3 85.6 236.8C144.6 230.1 208.1 236.8 254 274.2C299.1 311.1 318.4 370.7 331.2 427.4C332.5 433.1 333.7 438.8 334.9 444.5C343 484.1 347.7 525.1 339.1 565.3C334 589.2 324.4 611.4 316.1 633.7C309 652.9 302.7 672.2 300.7 692.6C298.7 712.2 303.8 736.6 320.1 745C325.9 748 331.9 748.6 337.7 749.2C345.1 750 352.7 750.8 360.6 751.8C380.7 754.3 402.1 757.7 424.1 762.5C447.9 767.5 471.9 773.9 493.4 786.1C547.4 816.8 570.8 874.4 576.2 928.8C581.6 983.3 572 1042.4 566 1105.3" stroke="url(#paint14_linear)" stroke-miterlimit="10"/>
<path d="M-347 89.0999C-349.3 146.3 -316.8 200.8 -271.1 233.6C-268.4 235.5 -265.6 237.4 -262.9 239.2C-218.4 267.9 -163.8 278.8 -109.8 277.4C-103.2 277.2 -96.6999 276.9 -90.0999 276.3C-30.7999 271.4 26.3001 252.8 84.4001 245.1C143.9 237.2 208.3 242.4 255.4 279.2C301.7 315.5 322.3 375.4 336.5 432.4C337.9 438.1 339.3 443.9 340.6 449.6C349.7 489.4 355.4 530.8 346.5 571.3C341.2 595.4 331.2 617.6 322.2 640C314.5 659.2 307.7 678.6 305.2 699.2C302.8 719 307.9 743.9 324.8 751.7C330.8 754.5 337.1 754.7 343.1 754.9C350.7 755.2 358.6 755.6 366.7 756.1C387.4 757.5 409.4 760 431.7 764.3C455.8 768.8 480 775.3 501.5 788C555.5 820 576.5 880.5 579.1 936.5C581.7 992.5 569 1052 563.1 1115.3" stroke="url(#paint15_linear)" stroke-miterlimit="10"/>
<path d="M-351.6 93.2C-354 151.1 -322.1 206.7 -276.4 240.9C-273.7 242.9 -270.9 244.9 -268.1 246.8C-223.4 276.8 -168.2 288.9 -113.5 287.7C-106.8 287.6 -100.2 287.2 -93.5002 286.7C-33.4002 281.9 24.2998 262.2 82.9998 253.3C142.9 244.2 208.2 247.9 256.6 284.1C304.1 319.8 325.9 379.9 341.6 437.2C343.2 442.9 344.7 448.7 346.2 454.5C356.3 494.6 363 536.4 353.9 577.2C348.5 601.4 337.9 623.7 328.4 646.1C320.2 665.4 312.7 684.8 309.8 705.5C307 725.4 312 750.9 329.6 758.1C335.8 760.7 342.3 760.5 348.6 760.4C356.5 760.3 364.7 760.2 373 760.3C394.4 760.6 416.9 762.2 439.5 766C464 770 488.3 776.6 509.8 789.8C563.7 823 582.5 886.5 582.2 944.1C581.9 1001.6 566.2 1061.4 560.3 1125.3" stroke="url(#paint16_linear)" stroke-miterlimit="10"/>
<path d="M-356.1 97.3999C-358.6 156 -327.3 212.7 -281.5 248.2C-278.8 250.3 -276 252.3 -273.2 254.3C-228.4 285.6 -172.5 298.9 -117.1 298C-110.4 297.9 -103.6 297.6 -96.9001 297C-36.0001 292.2 22.2 271.6 81.7 261.5C142.1 251.2 208.3 253.4 257.9 289C306.6 324.1 329.7 384.5 346.7 442C348.4 447.8 350.1 453.6 351.7 459.4C362.8 499.7 370.4 541.9 361.2 583C355.7 607.4 344.6 629.7 334.4 652.2C325.6 671.5 317.6 691 314.2 711.9C311 732 316 757.9 334.2 764.6C340.7 767 347.4 766.5 353.9 766C362.1 765.4 370.5 764.9 379 764.6C401 763.8 424 764.5 447 767.8C471.9 771.3 496.3 778 517.7 791.7C571.6 826.2 588.1 892.7 585 951.7C581.9 1010.7 563.1 1070.9 557.2 1135.3" stroke="url(#paint17_linear)" stroke-miterlimit="10"/>
<path d="M-360.6 101.5C-363.2 160.9 -332.5 218.6 -286.6 255.5C-283.9 257.7 -281.1 259.8 -278.3 261.8C-233.3 294.3 -176.8 308.8 -120.6 308.2C-113.8 308.1 -106.9 307.8 -100.1 307.3C-38.5001 302.6 20.2999 280.9 80.4999 269.7C141.4 258.3 208.4 258.9 259.3 294C309.3 328.5 333.5 389.2 352 447C353.9 452.8 355.7 458.6 357.4 464.5C369.5 505.1 378.1 547.6 368.6 589C363 613.6 351.3 635.9 340.5 658.4C331.2 677.8 322.6 697.2 318.7 718.3C315 738.5 320 765 338.9 771.2C345.6 773.4 352.5 772.5 359.2 771.6C367.6 770.5 376.3 769.6 385.1 768.9C407.7 767 431.3 766.8 454.6 769.6C479.8 772.7 504.4 779.4 525.8 793.6C579.7 829.3 593.9 898.8 587.9 959.4C581.9 1020 560.1 1080.4 554.3 1145.3" stroke="url(#paint18_linear)" stroke-miterlimit="10"/>
<path d="M-365.2 105.7C-367.9 165.8 -337.8 224.6 -291.9 262.9C-289.2 265.2 -286.4 267.4 -283.6 269.5C-238.5 303.3 -181.3 319 -124.4 318.6C-117.5 318.6 -110.6 318.3 -103.7 317.8C-41.2998 313.2 18.1002 290.6 79.0002 278C140.4 265.5 208.3 264.5 260.4 299C311.6 332.9 337.1 393.8 357 451.9C359 457.7 361 463.6 362.9 469.5C376 510.3 385.6 553.2 375.9 594.9C370.1 619.6 357.9 642 346.5 664.6C336.7 684 327.4 703.5 323.2 724.8C319.1 745.2 324.1 772.2 343.6 777.8C350.5 779.8 357.7 778.5 364.6 777.3C373.3 775.8 382.2 774.4 391.2 773.2C414.4 770.3 438.6 769 462.2 771.4C487.8 774 512.5 780.8 533.9 795.5C587.7 832.5 599.6 905 590.9 967C582.1 1029.1 557.2 1089.9 551.4 1155.3" stroke="url(#paint19_linear)" stroke-miterlimit="10"/>
<path d="M-369.7 109.8C-372.5 170.6 -343 230.5 -297 270.1C-294.3 272.4 -291.5 274.7 -288.7 276.9C-243.4 312 -185.6 328.8 -128 328.8C-121 328.8 -114 328.5 -107 328C-43.7999 323.4 16.1001 299.8 77.7001 286.1C139.5 272.4 208.3 269.8 261.8 303.8C314.2 337.1 341 398.3 362.3 456.6C364.4 462.4 366.5 468.3 368.6 474.3C382.7 515.3 393.3 558.7 383.3 600.6C377.4 625.5 364.7 647.9 352.6 670.5C342.2 689.9 332.4 709.5 327.7 730.9C323.2 751.5 328.1 779 348.3 784C355.5 785.8 362.9 784.1 370 782.6C378.9 780.6 388.1 778.8 397.4 777.2C421.3 773.2 446 771 469.9 772.9C495.8 775 520.7 781.9 542.1 797.1C595.9 835.3 605.5 910.8 593.9 974.4C582.3 1038 554.3 1099.1 548.6 1165" stroke="url(#paint20_linear)" stroke-miterlimit="10"/>
<path d="M-374.2 114C-377.3 179.2 -344.7 243.7 -293.8 284.5C-242.9 325.3 -175.4 343 -110.3 338.4C-46.4 333.9 14.1 309.2 76.5 294.4C138.8 279.5 208.5 275.4 263.2 308.8C316.8 341.5 344.8 403 367.5 461.6C385.5 508 402.3 558.3 390.7 606.6C379.5 653.2 343.3 690.8 332.2 737.4C327.3 758.1 332.2 786.2 353 790.6C360.4 792.2 368 790.2 375.3 788.2C433.7 772.7 501.4 763.2 550.1 799C603.9 838.4 611.2 916.9 596.7 982C582.2 1047.1 551.1 1108.5 545.5 1175" stroke="url(#paint21_linear)" stroke-miterlimit="10"/>
</g>
<defs>
<linearGradient id="paint0_linear" x1="-279.062" y1="495.952" x2="607.983" y2="495.952" gradientUnits="userSpaceOnUse">
<stop stop-color="#DDD8FF"/>
<stop offset="1" stop-color="#B454FF"/>
</linearGradient>
<linearGradient id="paint1_linear" x1="-283.665" y1="502.999" x2="604.952" y2="502.999" gradientUnits="userSpaceOnUse">
<stop stop-color="#DDD8FF"/>
<stop offset="1" stop-color="#B454FF"/>
</linearGradient>
<linearGradient id="paint2_linear" x1="-288.169" y1="510.145" x2="602.236" y2="510.145" gradientUnits="userSpaceOnUse">
<stop stop-color="#DDD8FF"/>
<stop offset="1" stop-color="#B454FF"/>
</linearGradient>
<linearGradient id="paint3_linear" x1="-292.673" y1="516.992" x2="599.504" y2="516.992" gradientUnits="userSpaceOnUse">
<stop stop-color="#DDD8FF"/>
<stop offset="1" stop-color="#B454FF"/>
</linearGradient>
<linearGradient id="paint4_linear" x1="-297.278" y1="524.089" x2="596.522" y2="524.089" gradientUnits="userSpaceOnUse">
<stop stop-color="#DDD8FF"/>
<stop offset="1" stop-color="#B454FF"/>
</linearGradient>
<linearGradient id="paint5_linear" x1="-301.783" y1="531.136" x2="593.535" y2="531.136" gradientUnits="userSpaceOnUse">
<stop stop-color="#DDD8FF"/>
<stop offset="1" stop-color="#B454FF"/>
</linearGradient>
<linearGradient id="paint6_linear" x1="-306.289" y1="538.283" x2="591.114" y2="538.283" gradientUnits="userSpaceOnUse">
<stop stop-color="#DDD8FF"/>
<stop offset="1" stop-color="#B454FF"/>
</linearGradient>
<linearGradient id="paint7_linear" x1="-310.895" y1="545.28" x2="588.455" y2="545.28" gradientUnits="userSpaceOnUse">
<stop stop-color="#DDD8FF"/>
<stop offset="1" stop-color="#B454FF"/>
</linearGradient>
<linearGradient id="paint8_linear" x1="-315.402" y1="552.327" x2="585.824" y2="552.327" gradientUnits="userSpaceOnUse">
<stop stop-color="#DDD8FF"/>
<stop offset="1" stop-color="#B454FF"/>
</linearGradient>
<linearGradient id="paint9_linear" x1="-319.909" y1="559.374" x2="583.281" y2="559.374" gradientUnits="userSpaceOnUse">
<stop stop-color="#DDD8FF"/>
<stop offset="1" stop-color="#B454FF"/>
</linearGradient>
<linearGradient id="paint10_linear" x1="-324.517" y1="566.371" x2="580.878" y2="566.371" gradientUnits="userSpaceOnUse">
<stop stop-color="#DDD8FF"/>
<stop offset="1" stop-color="#B454FF"/>
</linearGradient>
<linearGradient id="paint11_linear" x1="-329.026" y1="573.418" x2="578.987" y2="573.418" gradientUnits="userSpaceOnUse">
<stop stop-color="#DDD8FF"/>
<stop offset="1" stop-color="#B454FF"/>
</linearGradient>
<linearGradient id="paint12_linear" x1="-333.535" y1="580.514" x2="577.673" y2="580.514" gradientUnits="userSpaceOnUse">
<stop stop-color="#DDD8FF"/>
<stop offset="1" stop-color="#B454FF"/>
</linearGradient>
<linearGradient id="paint13_linear" x1="-338.145" y1="587.561" x2="577.216" y2="587.561" gradientUnits="userSpaceOnUse">
<stop stop-color="#DDD8FF"/>
<stop offset="1" stop-color="#B454FF"/>
</linearGradient>
<linearGradient id="paint14_linear" x1="-342.656" y1="594.558" x2="577.943" y2="594.558" gradientUnits="userSpaceOnUse">
<stop stop-color="#DDD8FF"/>
<stop offset="1" stop-color="#B454FF"/>
</linearGradient>
<linearGradient id="paint15_linear" x1="-347.167" y1="601.655" x2="579.601" y2="601.655" gradientUnits="userSpaceOnUse">
<stop stop-color="#DDD8FF"/>
<stop offset="1" stop-color="#B454FF"/>
</linearGradient>
<linearGradient id="paint16_linear" x1="-351.78" y1="608.702" x2="582.359" y2="608.702" gradientUnits="userSpaceOnUse">
<stop stop-color="#DDD8FF"/>
<stop offset="1" stop-color="#B454FF"/>
</linearGradient>
<linearGradient id="paint17_linear" x1="-356.293" y1="615.799" x2="585.516" y2="615.799" gradientUnits="userSpaceOnUse">
<stop stop-color="#DDD8FF"/>
<stop offset="1" stop-color="#B454FF"/>
</linearGradient>
<linearGradient id="paint18_linear" x1="-360.807" y1="622.846" x2="589.337" y2="622.846" gradientUnits="userSpaceOnUse">
<stop stop-color="#DDD8FF"/>
<stop offset="1" stop-color="#B454FF"/>
</linearGradient>
<linearGradient id="paint19_linear" x1="-365.422" y1="629.943" x2="593.642" y2="629.943" gradientUnits="userSpaceOnUse">
<stop stop-color="#DDD8FF"/>
<stop offset="1" stop-color="#B454FF"/>
</linearGradient>
<linearGradient id="paint20_linear" x1="-369.938" y1="636.84" x2="598.432" y2="636.84" gradientUnits="userSpaceOnUse">
<stop stop-color="#DDD8FF"/>
<stop offset="1" stop-color="#B454FF"/>
</linearGradient>
<linearGradient id="paint21_linear" x1="-374.459" y1="643.937" x2="603.376" y2="643.937" gradientUnits="userSpaceOnUse">
<stop stop-color="#DDD8FF"/>
<stop offset="1" stop-color="#B454FF"/>
</linearGradient>
<clipPath id="clip0">
<rect width="1088" height="910" fill="white" transform="translate(-236)"/>
</clipPath>
</defs>
</svg>
