<svg width="22" height="93" viewBox="0 0 22 93" fill="none" xmlns="http://www.w3.org/2000/svg">
<rect x="1" y="11" width="20" height="44" rx="10" stroke="white"/>
<rect x="8" y="27" width="6" height="14" rx="3" fill="white"/>
<path d="M11.1484 91.8555C11.3447 92.0497 11.6613 92.0479 11.8555 91.8516L15.0199 88.6521C15.214 88.4557 15.2123 88.1392 15.0159 87.945C14.8196 87.7508 14.503 87.7526 14.3088 87.9489L11.4961 90.7929L8.65208 87.9801C8.45574 87.786 8.13916 87.7877 7.94498 87.984C7.7508 88.1804 7.75255 88.497 7.94889 88.6911L11.1484 91.8555ZM10.5 1.00276L11 91.5028L12 91.4972L11.5 0.997238L10.5 1.00276Z" fill="white"/>
</svg>
