<svg width="139" height="140" viewBox="0 0 139 140" fill="none" xmlns="http://www.w3.org/2000/svg">
<path d="M31.8302 31.1856L30.7226 32.3575L20.17 25.6098L28.8624 34.2174L27.814 35.3087L16.8584 24.5452L18.5197 22.7873L29.0133 29.6156L21.9821 19.2501L23.6434 17.4923L34.599 28.2559L33.4915 29.4277L24.6378 20.7018L31.8302 31.1856Z" fill="#87458F"/>
<path d="M29.3259 17.6916C28.0251 15.7454 28.0843 13.8046 30.0305 12.5038C31.9767 11.2029 33.8422 11.703 35.1431 13.6492L39.6531 20.1814C40.9539 22.1276 40.8947 24.0684 38.9485 25.3692C37.0023 26.6701 35.196 26.0893 33.836 24.2238L29.3259 17.6916ZM35.3467 23.3476C36.0993 24.5196 37.083 24.8691 38.1153 24.138C39.1475 23.407 39.1368 22.407 38.3251 21.3156L33.6538 14.6652C32.8421 13.5738 31.9175 13.1436 30.8852 13.8747C29.853 14.6058 29.8637 15.6057 30.6754 16.6971L35.3467 23.3476Z" fill="#87458F"/>
<path d="M39.7131 7.07999C41.8421 6.03719 43.2291 6.68244 44.1913 8.75228L44.4976 9.34902C45.1534 10.8221 45.1856 11.9618 44.1748 12.8327C45.7124 12.5962 46.7607 13.3651 47.4971 14.8973L48.0292 16.0317C48.9914 18.1015 48.6095 19.8057 46.3999 20.7894L43.1957 22.2837L36.5466 8.35391L39.7131 7.07999ZM45.7657 19.4561C46.9 18.9239 47.1313 18.1014 46.497 16.7681L45.8842 15.5746C45.1478 14.0423 44.3253 13.8111 42.992 14.4454L41.6587 15.0796L44.1743 20.2731L45.7657 19.4561ZM42.0782 13.1551C43.2717 12.5423 43.7448 11.8972 43.089 10.4241L42.6805 9.62844C42.0678 8.43492 41.3635 8.0424 40.2883 8.49391L38.7561 9.23032L40.9438 13.6873L42.0782 13.1551Z" fill="#87458F"/>
<path d="M47.9387 3.81194L52.8944 18.3598L51.26 18.8973L46.3043 4.34945L47.9387 3.81194Z" fill="#87458F"/>
<path d="M54.8674 17.6987L51.4063 2.63482L53.0622 2.23714L56.2062 15.7043L60.4963 14.7584L60.8725 16.2745L54.8674 17.6987Z" fill="#87458F"/>
<path d="M66.975 7.1088L67.0716 8.66786L63.3353 9.0278L63.8134 14.463L68.4099 14.1139L68.5065 15.6729L62.152 16.2208L60.8683 0.89367L67.2228 0.345742L67.3194 1.90481L62.7229 2.25393L63.1795 7.54935L66.975 7.1088Z" fill="#87458F"/>
<path d="M79.6466 2.51314C78.4048 2.3464 77.6305 2.89471 77.367 4.43762L77.2756 5.23862C77.0497 6.5611 77.598 7.33528 78.7807 7.58266L80.4634 7.82471L80.7054 6.14203L82.3881 6.38408L82.1461 8.06676L82.9471 8.15819L82.6836 9.70112L81.8825 9.60969L81.1188 14.8781C81.0273 15.6791 80.9735 16.2598 81.1401 16.878L79.4575 16.636C79.3338 16.2973 79.2693 15.8779 79.3823 15.2167C78.8123 16.1628 77.936 16.5123 76.7748 16.4046C74.8717 16.125 74.216 14.6518 74.5333 12.5283L74.7377 11.0661C74.9421 9.60381 75.6895 8.41574 77.0066 8.14166C75.84 7.53408 75.4262 6.23848 75.6306 4.77621L75.6467 4.41602C76.0608 1.99146 77.3888 0.857145 79.7919 1.13149L82.2756 1.46498L82.012 3.00791L79.6466 2.51314ZM78.6355 8.96431C77.3936 8.79756 76.6409 9.48565 76.3774 11.0286L76.2322 12.4102C76.0063 13.7327 76.4954 14.5875 77.7373 14.7542C78.7587 14.8833 79.4738 14.4157 79.7211 13.233L80.3181 9.20635L78.6355 8.96431Z" fill="#87458F"/>
<path d="M90.2308 19.7011L88.0805 18.744L92.3608 3.77742L93.8876 4.40115L90.2633 17.1206L97.183 5.82604L98.7904 6.50891L95.0854 19.1692L102.005 7.87462L103.392 8.51985L95.2734 21.7873L93.2037 20.8894L96.0752 10.7182L90.2308 19.7011Z" fill="#87458F"/>
<path d="M107.391 19.6378L106.504 20.8473L103.381 18.6806L100.208 23.1747L103.977 25.8146L103.031 27.1048L97.8323 23.5401L106.618 10.8855L111.816 14.4502L110.87 15.7404L107.101 13.1005L104.047 17.4333L107.391 19.6378Z" fill="#87458F"/>
<path d="M117.589 19.4289C119.347 21.0902 119.224 22.6116 117.681 24.2081L117.186 24.7135C116.078 25.8854 115.003 26.3369 113.756 25.6701C114.53 26.9819 114.084 28.2668 112.976 29.4387L112.046 30.3687C110.444 32.0459 108.745 32.1641 107.068 30.5619L104.541 28.0887L115.203 16.9342L117.589 19.4289ZM108.116 29.4706C108.966 30.3416 109.885 30.2717 110.874 29.2611L111.863 28.2505C113.03 26.998 112.96 26.0787 111.89 25.1701L110.799 24.1216L106.864 28.3039L108.116 29.4706ZM112.837 23.8798C113.847 24.8691 114.648 24.9606 115.756 23.7887L116.369 23.1221C117.358 22.1115 117.45 21.3105 116.541 20.5201L115.289 19.3534L111.907 22.9498L112.837 23.8798Z" fill="#87458F"/>
<path d="M116.637 36.96L113.669 38.1317L112.814 36.7608L127.373 30.945L128.695 33.031L117.41 43.8521L116.475 42.4221L118.792 40.2772L116.637 36.96ZM118.051 36.3848L119.921 39.245L126.475 33.0147L118.051 36.3848Z" fill="#87458F"/>
<path d="M133.453 42.1006C134.436 44.3103 133.533 45.88 131.382 46.783L129.71 47.541C127.501 48.5246 125.834 47.9224 124.851 45.7127L124.276 44.2988L118.7 46.6585L118.023 45.0457L132.179 38.9341L133.453 42.1006ZM126.265 45.1376C126.797 46.272 127.56 46.5839 128.915 46.0894L130.786 45.2293C132.06 44.6757 132.512 43.8908 131.979 42.7564L131.324 41.2834L125.63 43.8043L126.265 45.1376Z" fill="#87458F"/>
<path d="M136.86 52.1648C137.505 54.4981 136.36 55.8904 134.086 56.4547L132.29 56.874C129.957 57.5189 128.409 56.7554 127.823 54.3415L127.447 52.8254L121.603 54.3679L121.205 52.7121L136.124 48.7725L136.86 52.1648ZM129.28 54.0459C129.613 55.2824 130.317 55.6749 131.774 55.3793L133.769 54.858C135.145 54.5033 135.677 53.7776 135.366 52.6809L134.909 51.1056L128.925 52.6696L129.28 54.0459Z" fill="#87458F"/>
<path d="M135.392 66.3413L134.972 66.4058L134.795 64.7876L135.295 64.7823C136.634 64.648 137.467 64.019 137.354 62.8202C137.241 61.6213 136.376 61.1106 134.978 61.3255C131.521 61.6424 131.757 66.9002 127.381 67.287C125.064 67.5717 123.414 66.6093 123.188 64.2116C122.903 61.8945 124.35 60.599 126.608 60.3949L127.527 60.325L127.704 61.9432L126.785 62.013C125.446 62.1473 124.693 62.8354 124.806 64.0343C124.919 65.2332 125.785 65.7439 127.123 65.6096C130.5 65.2335 130.285 60.1155 134.661 59.7288C137.059 59.5031 138.628 60.4064 138.832 62.6644C139.176 64.9008 137.789 66.1157 135.392 66.3413Z" fill="#87458F"/>
<path d="M131.368 101.586C130.271 103.758 128.814 104.054 126.782 102.935L126.158 102.602C124.691 101.898 124.04 100.925 124.266 99.6021C123.218 100.693 121.858 100.688 120.39 99.9835L119.224 99.3759C117.132 98.3382 116.595 96.7039 117.633 94.6127L119.299 91.4947L132.975 98.549L131.368 101.586ZM119.02 95.2579C118.471 96.3438 118.74 97.161 119.987 97.8277L121.154 98.4352C122.702 99.1987 123.519 98.93 124.164 97.5431L124.89 96.2152L119.762 93.5699L119.02 95.2579ZM125.772 98.2259C125.164 99.3925 125.234 100.312 126.621 100.957L127.406 101.409C128.572 102.016 129.411 101.887 129.959 100.801L130.723 99.2531L126.299 97.0002L125.772 98.2259Z" fill="#87458F"/>
<path d="M115.159 98.9993L127.696 107.946L126.69 109.317L115.444 101.316L112.922 104.924L111.632 103.977L115.159 98.9993Z" fill="#87458F"/>
<path d="M119.051 113.139C120.728 114.741 121.029 116.698 119.346 118.316C117.685 120.074 115.782 119.794 114.104 118.192L108.385 112.632C106.707 111.03 106.406 109.073 108.148 107.375C109.751 105.697 111.713 105.897 113.331 107.579L119.051 113.139ZM112.143 108.692C111.132 107.703 110.111 107.574 109.24 108.423C108.369 109.272 108.519 110.251 109.53 111.24L115.352 116.998C116.362 117.988 117.384 118.117 118.255 117.267C119.126 116.418 118.895 115.38 117.965 114.45L112.143 108.692Z" fill="#87458F"/>
<path d="M105.991 124.519L105.18 123.427L106.529 122.433L107.421 123.583C108.233 124.675 109.217 125.024 110.249 124.293C111.281 123.562 111.19 122.503 110.378 121.412L105.508 114.863C104.697 113.772 103.713 113.422 102.68 114.154C101.648 114.885 101.74 115.944 102.551 117.035L103.729 118.643L102.379 119.637L101.282 118.089C99.9224 116.223 99.8419 114.304 101.767 112.863C103.632 111.503 105.439 112.084 106.858 113.869L111.567 120.299C112.927 122.164 113.007 124.084 111.142 125.444C109.158 126.965 107.351 126.384 105.991 124.519Z" fill="#87458F"/>
<path d="M98.4166 123.18L98.4974 121.379L96.1484 116.803L97.6806 116.067L104.728 129.792L103.195 130.529L99.7445 123.905L99.4751 132.389L97.8837 133.206L98.1585 125.222L90.7184 119.642L92.3098 118.825L98.4166 123.18Z" fill="#87458F"/>
<path d="M86.7822 133.124L86.3684 131.829L87.8629 131.313L88.2983 132.748C88.7121 134.044 89.5185 134.635 90.755 134.302C91.9109 133.91 92.2604 132.926 91.7659 131.571L89.2236 123.878C88.8097 122.582 88.0034 121.991 86.7669 122.324C85.611 122.716 85.2615 123.7 85.756 125.055L86.3364 126.969L84.8419 127.485L84.2023 125.651C83.4982 123.399 84.0789 121.593 86.3315 120.889C88.5841 120.184 90.1162 121.308 90.8203 123.561L93.3412 131.114C94.0453 133.367 93.4645 135.173 91.2119 135.877C89.0184 136.501 87.4863 135.377 86.7822 133.124Z" fill="#87458F"/>
<path d="M81.0033 129.506L79.95 122.657L81.6274 122.399L83.9702 137.635L82.2929 137.893L81.2397 131.043L77.4657 131.624L78.5189 138.473L76.8415 138.731L74.4987 123.495L76.176 123.237L77.2292 130.086L81.0033 129.506Z" fill="#87458F"/>
<path d="M70.8535 126.774L71.5204 123.667L73.1009 123.71L69.9441 139.005L67.5034 138.951L64.7788 123.559L66.4991 123.581L67.0526 126.715L70.8535 126.774ZM70.6491 128.236L67.2084 128.193L68.8636 137.096L70.6491 128.236Z" fill="#87458F"/>
<path d="M59.4555 138.257L61.5532 123.053L63.2359 123.295L61.1382 138.499L59.4555 138.257Z" fill="#87458F"/>
<path d="M58.0857 122.37L59.5695 122.714L55.7085 137.617L53.6226 137.079L52.9783 125.445L50.1927 136.175L48.709 135.831L52.57 120.929L54.3548 121.37L55.0743 134.423L58.0857 122.37Z" fill="#87458F"/>
<path d="M17.954 115.879C16.3951 114.115 16.5995 112.653 18.2232 111.116L18.7178 110.61C19.906 109.497 21.0028 109.186 22.1908 109.933C21.4759 108.541 22.0028 107.315 23.3308 106.181L24.3416 105.31C26.105 103.751 27.7447 103.713 29.3843 105.536L31.7925 108.17L20.2817 118.454L17.954 115.879ZM23.0508 111.804C22.18 110.793 21.3575 110.562 20.1693 111.675L19.4758 112.282C18.465 113.153 18.2338 113.976 19.0831 114.847L20.2765 116.094L23.9808 112.734L23.0508 111.804ZM28.2552 106.568C27.465 105.616 26.5457 105.686 25.4758 106.638L24.4651 107.509C23.1371 108.643 23.2069 109.562 24.1584 110.632L25.1905 111.761L29.4701 107.955L28.2552 106.568Z" fill="#87458F"/>
<path d="M12.4388 108.857L25.0247 99.9822L26.0191 101.332L13.4332 110.207L12.4388 108.857Z" fill="#87458F"/>
<path d="M10.3429 98.0189L11.5364 97.4061L12.332 98.8577L11.0793 99.5511C9.82666 100.245 9.45562 101.089 9.98777 102.223C10.5791 103.277 11.6005 103.406 12.794 102.793L19.9928 98.8959C21.2455 98.2025 21.6756 97.2778 21.0843 96.2241C20.493 95.1703 19.4716 95.0413 18.2781 95.6541L15.5738 97.143L16.2887 98.5355L14.8963 99.2503L13.3858 96.4064L17.3427 94.2239C19.3911 93.122 21.2135 93.3425 22.3961 95.45C23.4981 97.4983 22.6969 99.267 20.6486 100.369L13.6487 104.164C11.6004 105.266 9.77793 105.045 8.59535 102.938C7.49341 100.89 8.29456 99.1209 10.3429 98.0189Z" fill="#87458F"/>
<path d="M2.77411 87.8792C2.12915 85.5459 3.27438 84.1536 5.52698 83.4495L13.0052 81.3695C15.2793 80.8052 16.9458 81.4074 17.5907 83.7407L18.5474 87.1707L3.65017 91.25L2.77411 87.8792ZM16.0962 84.2567C15.763 83.0202 14.8598 82.7298 13.4835 83.0845L5.86554 85.186C4.48925 85.5407 3.89779 86.3471 4.23102 87.5836L4.7094 89.2986L16.5154 86.0523L16.0962 84.2567Z" fill="#87458F"/>
<path d="M13.1237 77.488L16.2472 77.7947L16.4244 79.4129L0.828711 78.0194L0.522432 75.5626L15.5756 71.1015L15.7744 72.8595L12.7638 73.7517L13.1237 77.488ZM11.6023 77.3643L11.2263 73.9881L2.55448 76.6809L11.6023 77.3643Z" fill="#87458F"/>
<path d="M15.7748 67.2791L1.98535 66.4664L1.77547 69.2888L0.254078 69.1651L0.695436 61.7999L2.21683 61.9237L2.00699 64.7461L15.7964 65.5588L15.7748 67.2791Z" fill="#87458F"/>
<path d="M13.4368 59.9837L16.3505 61.2526L16.0869 62.7956L1.64194 56.7895L2.19588 54.3434L17.8992 54.5757L17.5174 56.2799L14.3563 56.1937L13.4368 59.9837ZM11.9906 59.4192L12.6951 56.0914L3.59351 55.9886L11.9906 59.4192Z" fill="#87458F"/>
<path d="M126.874 92.8337C126.697 93.0757 126.358 93.1992 126.057 93.1025C125.675 92.9465 125.471 92.5487 125.627 92.167C128.531 84.9956 130.009 77.3993 130.026 69.5987C130.042 69.2385 130.338 68.8353 130.779 68.9106C131.139 68.9268 131.542 69.2225 131.467 69.6633C131.472 77.6037 129.955 85.4204 127.073 92.7316C126.992 92.6725 126.933 92.7531 126.874 92.8337Z" fill="#87458F"/>
<path d="M11.9536 52.1992C11.7762 52.4411 11.4374 52.5647 11.1364 52.4679C10.7547 52.312 10.5505 51.9142 10.6472 51.6132C12.6368 45.0115 15.8306 38.797 19.9706 33.1525C20.3254 32.6687 20.6211 32.2655 20.976 31.7817C21.2126 31.4591 21.6319 31.3946 21.9545 31.6312C22.277 31.8678 22.3415 32.2871 22.1049 32.6097C21.8092 33.0128 21.4543 33.4967 21.1586 33.8999C17.137 39.3831 14.0614 45.4363 12.131 51.9573C12.0127 52.1186 11.9536 52.1992 11.9536 52.1992Z" fill="#87458F"/>
<path d="M48.8762 127.149C48.6988 127.391 48.3601 127.515 48.059 127.418C42.8175 125.434 37.8288 122.767 33.2325 119.396C31.3779 118.035 29.5824 116.595 27.9858 115.052C27.6633 114.815 27.6579 114.315 27.9751 114.052C28.2117 113.729 28.7117 113.724 28.9751 114.041C30.6308 115.503 32.3671 117.025 34.1411 118.326C38.5761 121.579 43.4843 124.186 48.586 126.192C48.9677 126.348 49.1719 126.746 49.016 127.128C48.9354 127.068 48.8762 127.149 48.8762 127.149Z" fill="#87458F"/>
</svg>
