<svg width="132" height="135" viewBox="0 0 132 135" fill="none" xmlns="http://www.w3.org/2000/svg">
<path d="M42.4907 129.33L43.0546 128.034L44.5444 128.65L43.954 130.044C43.3902 131.341 43.6338 132.341 44.7644 132.755C45.895 133.17 46.7556 132.68 47.3194 131.383L50.3334 123.811C50.8972 122.514 50.6536 121.514 49.523 121.1C48.3924 120.685 47.5319 121.175 46.9681 122.472L46.2454 124.347L44.7556 123.73L45.4518 121.951C46.3505 119.813 47.8786 118.781 50.1134 119.706C52.2517 120.605 52.7919 122.413 51.8932 124.551L48.9321 131.93C48.0334 134.069 46.5053 135.101 44.2706 134.175C42.0358 133.25 41.592 131.469 42.4907 129.33Z" fill="#BBACCF"/>
<path d="M34.4662 129.096C32.4338 127.811 32.1298 126.276 33.3877 124.34L33.995 123.262C34.9011 121.852 35.9109 121.196 37.2609 121.567C36.3157 120.478 36.4408 119.268 37.2505 117.831L38.5349 115.799C38.9132 115.177 39.1687 114.625 39.2312 114.02L40.7379 114.952C40.7019 115.461 40.4995 115.82 40.0417 116.731L38.7572 118.764C37.8246 120.27 38.3141 121.131 39.4617 121.861L40.5394 122.468L43.9443 116.87L45.4511 117.803L37.4796 130.961L34.4662 129.096ZM38.5821 123.175C37.4345 122.445 36.5138 122.399 35.6077 123.809L34.851 125.053C34.1208 126.201 34.1716 127.148 35.2492 127.755L36.6596 128.662L39.6598 123.782L38.5821 123.175Z" fill="#BBACCF"/>
<path d="M32.5448 115.708L28.6584 125.322L27.3276 124.127L30.3851 116.774L23.6413 120.936L22.3804 119.863L31.2405 114.416L34.7831 110.205L36.044 111.277L32.5448 115.708Z" fill="#BBACCF"/>
<path d="M17.5753 114.706C16.0177 112.826 16.3718 111.16 18.2517 109.603L19.6134 108.421C21.4933 106.864 23.1421 106.902 24.8225 108.712L25.8377 109.924L30.441 106.004L31.5259 107.339L19.7718 117.28L17.5753 114.706ZM23.5138 109.701C22.6386 108.734 21.8408 108.619 20.7514 109.564L19.1438 110.885C18.0544 111.83 17.8425 112.601 18.7177 113.568L19.8292 114.807L24.5554 110.816L23.5138 109.701Z" fill="#BBACCF"/>
<path d="M25.0255 98.9156L13.2854 106.164L14.8069 108.552L13.4548 109.322L9.57261 103.069L10.9247 102.3L12.4462 104.689L24.1865 97.4405L25.0255 98.9156Z" fill="#BBACCF"/>
<path d="M11.3266 98.5735C9.19351 99.5429 7.26494 99.013 6.41842 96.8099C5.47549 94.5804 6.43461 92.9772 8.56774 92.0078L15.8444 88.9258C17.9511 88.0527 19.9061 88.4863 20.7527 90.6893C21.7221 92.8224 20.7365 94.522 18.5069 95.465L11.3266 98.5735ZM18.1064 93.903C19.4056 93.3267 19.9335 92.5383 19.427 91.3621C18.9206 90.1859 17.9298 90.0173 16.6571 90.4973L9.16103 93.6227C7.86187 94.1991 7.33414 94.9874 7.84058 96.1636C8.34701 97.3399 9.33778 97.5085 10.6104 97.0285L18.1064 93.903Z" fill="#BBACCF"/>
<path d="M5.85887 82.241L6.29748 82.1541L6.69798 83.716L6.25925 83.8028C4.91667 84.1599 4.22257 84.7988 4.50966 86.0185C4.79674 87.2381 5.76105 87.5031 7.07713 87.2425C10.4204 86.3982 9.54437 81.2833 13.6686 80.2387C15.8885 79.708 17.6676 80.4043 18.2948 82.6508C18.9219 84.8972 17.6735 86.4209 15.3571 86.9252L14.4798 87.0989L14.0793 85.537L14.9832 85.2668C16.3258 84.9098 16.95 84.148 16.6629 82.9283C16.3758 81.7086 15.438 81.3472 14.0954 81.7042C10.7522 82.5485 11.6547 87.5671 7.50401 88.708C5.1611 89.3087 3.50494 88.5424 2.97421 86.3224C2.39048 84.2953 3.51597 82.8416 5.85887 82.241Z" fill="#BBACCF"/>
<path d="M16.7121 75.5786L2.97482 76.8853L3.22365 79.7538L1.61828 79.9348L0.939544 72.5926L2.54492 72.4114L2.79375 75.2799L16.531 73.9732L16.7121 75.5786Z" fill="#BBACCF"/>
<path d="M13.3048 68.731L16.4168 69.4824L16.3087 71.0083L1.06382 67.234L1.21764 64.7872L16.7193 62.7209L16.6545 64.4661L13.5402 64.8548L13.3048 68.731ZM11.8319 68.4299L12.0578 64.9659L3.10059 66.238L11.8319 68.4299Z" fill="#BBACCF"/>
<path d="M18.1884 55.8651L17.7644 57.4079L5.25861 56.8752L17.1985 59.8451L16.801 61.2914L1.84547 57.5966L2.38501 55.2559L14.8908 55.7886L3.61335 50.4081L4.15288 48.0674L19.1084 51.7622L18.6845 53.305L6.64819 50.3087L18.1884 55.8651Z" fill="#BBACCF"/>
<path d="M7.25383 40.9341C8.27546 38.7258 10.0303 38.3784 12.1421 39.3736L13.7983 40.1398C16.0065 41.1614 16.7227 42.7064 15.7011 44.9146L15.1107 46.308L20.6313 48.8621L19.8916 50.4219L5.8708 44.08L7.25383 40.9341ZM14.3342 44.2279C14.8715 43.0274 14.5748 42.2199 13.2778 41.6561L11.4288 40.8368C10.1319 40.273 9.25455 40.4468 8.74373 41.5509L8.03046 43.0142L13.6474 45.5948L14.3342 44.2279Z" fill="#BBACCF"/>
<path d="M19.3364 33.5725L20.6503 34.4521L18.6357 37.6319L23.1994 40.649L25.7152 36.7772L27.0291 37.6568L23.6072 42.9389L10.678 34.5118L14.0999 29.2297L15.4138 30.1093L12.898 33.9811L17.2954 36.8487L19.3364 33.5725Z" fill="#BBACCF"/>
<path d="M18.9705 23.2049C20.5876 21.4715 22.4293 21.5627 24.1627 23.1798L29.8886 28.383C31.6221 30.0001 31.9695 31.755 30.3524 33.4884L27.9617 36.1501L16.4833 25.8401L18.9705 23.2049ZM29.1879 32.4425C30.0579 31.5408 29.8143 30.5404 28.8162 29.6439L22.9239 24.2913C21.8293 23.3683 20.9085 23.3227 20.0385 24.2244L18.8167 25.6517L27.9661 33.8698L29.1879 32.4425Z" fill="#BBACCF"/>
<path d="M50.346 12.4336L49.9655 14.1957L51.6224 19.1105L50.0076 19.7038L45.1065 5.08248L46.7215 4.48919L49.0321 11.554L50.6094 3.17233L52.2244 2.57904L50.7795 10.4786L57.2482 17.1304L55.5368 17.6971L50.346 12.4336Z" fill="#BBACCF"/>
<path d="M60.0732 16.6622L58.5643 16.8698L56.1991 1.70088L58.3661 1.36298L63.5821 11.8188L61.8491 0.764491L63.3581 0.556929L65.7233 15.7259L63.9951 15.9768L58.1762 4.31832L60.0732 16.6622Z" fill="#BBACCF"/>
<path d="M67.5 3.97661C67.5309 1.59983 68.6563 0.146115 71.0331 0.176993C73.4099 0.207871 74.5383 1.76244 74.5339 4.04278L74.4221 11.9975C74.3913 14.3743 73.2658 15.828 70.889 15.7971C68.5123 15.7662 67.3838 14.2117 67.3882 11.9313L67.5 3.97661ZM69.1069 12.0925C69.1216 13.5485 69.6377 14.3125 70.8743 14.3412C72.1109 14.3699 72.7615 13.5116 72.7203 12.1521L72.7886 3.97804C72.7474 2.61851 72.258 1.75806 71.0214 1.72937C69.7848 1.70069 69.134 2.5589 69.1753 3.91843L69.1069 12.0925Z" fill="#BBACCF"/>
<path d="M80.0178 16.5427L77.7735 16.0297L78.8119 0.551541L80.4776 0.905579L79.5401 14.1299L83.9055 1.64012L85.5713 1.99419L84.5373 15.1919L88.9028 2.70224L90.3757 3.00324L85.2078 17.6577L82.9636 17.1448L83.6679 6.65649L80.0178 16.5427Z" fill="#BBACCF"/>
<path d="M90.1204 17.141L89.3711 19.1129L87.8548 18.5925L88.604 16.6206L90.1204 17.141Z" fill="#BBACCF"/>
<path d="M96.1886 22.2308L94.7518 21.4212L98.1604 9.39446L92.4737 20.2766L91.1068 19.5899L98.2633 6.00043L100.349 7.09201L96.9136 19.2151L104.782 9.45104L106.867 10.5426L99.7108 24.132L98.2475 23.4188L103.961 12.4402L96.1886 22.2308Z" fill="#BBACCF"/>
<path d="M110.801 21.8906L109.852 23.0815L106.848 20.8042L103.471 25.1654L107.141 28.0404L106.191 29.2315L101.234 25.3804L110.686 13.2513L115.643 17.1024L114.693 18.2934L111.024 15.4183L107.797 19.6132L110.801 21.8906Z" fill="#BBACCF"/>
<path d="M114.273 26.9929L114.37 27.0194C129.39 42.5548 135.223 65.1064 129.5 85.9343C120.544 118.526 86.7398 137.756 54.148 128.8C53.9551 128.747 53.8853 128.624 53.9383 128.432C53.9913 128.239 54.1141 128.169 54.307 128.222C86.6095 137.098 120.045 118.078 128.921 85.7753C134.592 65.1403 128.829 42.7115 113.974 27.3256C113.905 27.2027 113.861 26.9834 113.984 26.9135C114.08 26.94 114.177 26.9664 114.273 26.9929Z" fill="#BBACCF"/>
<path d="M44.2117 14.3778C44.3081 14.4043 44.4045 14.4308 44.378 14.5272C44.4479 14.6501 44.395 14.843 44.272 14.9129C40.1022 16.8783 36.0892 19.4052 32.5053 22.2576C32.3824 22.3275 32.163 22.3709 32.0931 22.248C32.0231 22.125 31.9797 21.9057 32.1026 21.8358C35.713 18.8871 39.6995 16.4565 43.9923 14.4212C44.0887 14.4477 44.2117 14.3778 44.2117 14.3778Z" fill="#BBACCF"/>
</svg>
