<svg width="139" height="139" viewBox="0 0 139 139" fill="none" xmlns="http://www.w3.org/2000/svg">
<path d="M58.3004 134.4L58.3004 134L59.9004 134.2L59.8004 134.7C59.6004 136.1 60.1004 136.9 61.3004 137.1C62.5004 137.2 63.1004 136.5 63.3004 135.1C63.7004 131.7 58.6004 130.7 59.1004 126.4C59.4004 124.1 60.7004 122.7 63.0004 123C65.3004 123.3 66.3004 124.9 66.0004 127.2L65.9004 128.1L64.3004 127.9L64.4004 126.9C64.6004 125.5 64.1004 124.6 62.9004 124.5C61.7004 124.4 61.0004 125.1 60.9004 126.5C60.5004 129.9 65.6004 130.8 65.1004 135.1C64.8004 137.5 63.6004 138.8 61.3004 138.5C58.9004 138.4 58.0004 136.7 58.3004 134.4Z" fill="#BBACCF"/>
<path d="M55.9004 121.9L52.3004 135.3L55.0004 136L54.6004 137.5L47.5004 135.6L47.9004 134.1L50.6004 134.8L54.2004 121.5L55.9004 121.9Z" fill="#BBACCF"/>
<path d="M40.9004 132.9C38.7004 131.9 38.3004 130.4 39.2004 128.3L39.7004 127.2C40.4004 125.7 41.4004 124.9 42.7004 125.1C41.6004 124.1 41.6004 122.9 42.3004 121.4L43.3004 119.2C43.6004 118.6 43.8004 118 43.8004 117.4L45.4004 118.1C45.4004 118.6 45.3004 119 44.9004 119.9L43.9004 122.1C43.2004 123.7 43.7004 124.5 45.0004 125.1L46.1004 125.6L48.8004 119.6L50.4004 120.3L44.1004 134.3L40.9004 132.9ZM44.3004 126.4C43.1004 125.8 42.1004 125.9 41.4004 127.4L40.8004 128.7C40.2004 130 40.4004 130.8 41.6004 131.4L43.1004 132.1L45.4004 126.9L44.3004 126.4Z" fill="#BBACCF"/>
<path d="M39.3004 118.1L41.5004 115.9L42.8004 116.8L31.8004 128L29.7004 126.6L35.8004 112.2L37.2004 113.2L36.0004 116.1L39.3004 118.1ZM38.3004 119.2L35.4004 117.3L31.9004 125.7L38.3004 119.2Z" fill="#BBACCF"/>
<path d="M33.2004 109.6L23.8004 119.7L25.9004 121.6L24.8004 122.7L19.4004 117.7L20.5004 116.6L22.6004 118.5L32.0004 108.4L33.2004 109.6Z" fill="#BBACCF"/>
<path d="M18.9004 106.6L20.1004 105.6L22.4004 108.5L26.7004 105.1L23.8004 101.5L25.0004 100.5L28.9004 105.5L16.9004 115.1L13.0004 110.1L14.2004 109.1L17.1004 112.7L21.2004 109.4L18.9004 106.6Z" fill="#BBACCF"/>
<path d="M10.6004 99.1L11.7004 98.4L12.5004 99.8L11.3004 100.5C10.1004 101.2 9.60041 102.1 10.3004 103.2C10.9004 104.3 11.9004 104.4 13.1004 103.7L20.2004 99.7C21.4004 99 21.8004 98.1 21.2004 97C20.6004 95.9 19.6004 95.8 18.4004 96.5L15.7004 98L16.5004 99.4L15.2004 100.2L13.6004 97.4L17.5004 95.1C19.5004 93.9 21.4004 94.1 22.6004 96.2C23.8004 98.2 23.0004 100 21.0004 101.1L14.1004 105.1C12.1004 106.3 10.2004 106.1 9.00038 104C7.80039 102 8.60039 100.3 10.6004 99.1Z" fill="#BBACCF"/>
<path d="M14.0004 91.5L5.90038 98L5.3004 96.3L11.5004 91.4L3.60039 91.8L3.00039 90.3L13.4004 89.9L18.6004 87.9L19.2004 89.5L14.0004 91.5Z" fill="#BBACCF"/>
<path d="M0.2004 63.8C0.400397 61.4 1.60038 60.6 3.90038 60.7L4.60039 60.8C6.2004 60.9 7.20039 61.5 7.50039 62.8C8.00039 61.3 9.30039 60.9 11.0004 61L12.3004 61.1C14.6004 61.3 15.8004 62.5 15.6004 64.9L15.3004 68.4L0.000387715 67.1L0.2004 63.8ZM14.0004 64.9C14.1004 63.7 13.5004 63 12.1004 62.9L10.7004 62.8C9.0004 62.7 8.4004 63.3 8.2004 64.8L8.10039 66.3L13.8004 66.8L14.0004 64.9ZM6.7004 64.8C6.80041 63.4 6.40041 62.7 4.80041 62.6L3.90038 62.5C2.50039 62.4 1.80041 62.8 1.7004 64L1.60039 65.7L6.60039 66.1L6.7004 64.8Z" fill="#BBACCF"/>
<path d="M2.00039 52.9C2.6004 50.4999 4.0004 49.9 6.2004 50.4L7.40038 50.7C9.00039 51.1 9.90038 51.9 10.0004 53.3C10.7004 52 12.0004 51.8 13.6004 52.2L15.9004 52.8C16.6004 53 17.2004 53.0999 17.8004 52.9L17.4004 54.6C16.9004 54.7 16.5004 54.7 15.5004 54.4L13.2004 53.8C11.5004 53.4 10.8004 54 10.4004 55.4L10.1004 56.6L16.5004 58.2L16.1004 59.9L1.10039 56.2L2.00039 52.9ZM8.90038 55C9.20039 53.7 9.00039 52.8 7.40038 52.4L6.00039 52C4.70039 51.7 3.80039 52 3.50039 53.2L3.10039 54.8L8.60039 56.2L8.90038 55Z" fill="#BBACCF"/>
<path d="M16.2004 48.7L18.8004 50.5L18.2004 52L5.30041 43.2L6.30041 40.9L21.6004 44.3L20.9004 45.9L17.8004 45.2L16.2004 48.7ZM14.9004 47.9L16.3004 44.8L7.50039 42.8L14.9004 47.9Z" fill="#BBACCF"/>
<path d="M23.0004 41.7L22.2004 43L9.30041 34.6L10.5004 32.8L21.8004 35.9L12.5004 29.8L13.3004 28.5L26.2004 36.9L25.2004 38.4L12.6004 34.9L23.0004 41.7Z" fill="#BBACCF"/>
<path d="M18.4004 22.4C20.0004 20.5999 21.8004 20.8 23.6004 22.4L29.3004 27.7C31.0004 29.3 31.4004 31.1 29.7004 32.9L27.3004 35.6L16.0004 25.2L18.4004 22.4ZM28.6004 31.8C29.4004 30.9 29.3004 29.9 28.2004 29L22.4004 23.6C21.4004 22.6 20.4004 22.6 19.5004 23.5L18.2004 24.9L27.2004 33.2L28.6004 31.8Z" fill="#BBACCF"/>
<path d="M43.5004 5.09997C45.7004 4.19997 47.3004 5.09998 48.2004 7.29998L51.1004 14.5C52.0004 16.7 51.5004 18.4 49.3004 19.3L46.0004 20.6L40.2004 6.29998L43.5004 5.09997ZM48.7004 18C49.8004 17.5 50.1004 16.6 49.6004 15.3L46.6004 7.99999C46.1004 6.69999 45.2004 6.2 44.1004 6.7L42.4004 7.39995L47.0004 18.8L48.7004 18Z" fill="#BBACCF"/>
<path d="M51.9004 2.39996L55.9004 17.3L54.2004 17.8L50.2004 2.89996L51.9004 2.39996Z" fill="#BBACCF"/>
<path d="M62.8004 4.09995L63.0004 5.39994L61.4004 5.59995L61.2004 4.19999C61.0004 2.8 60.3004 2.09997 59.1004 2.29997C57.9004 2.49996 57.4004 3.39997 57.7004 4.79997L58.9004 12.8C59.1004 14.2 59.8004 14.9 61.0004 14.7C62.2004 14.5 62.7004 13.6 62.4004 12.2L61.9004 9.19999L60.3004 9.39994L60.1004 7.89994L63.3004 7.39994L64.0004 11.8999C64.4004 14.1999 63.5004 15.9 61.1004 16.2C58.8004 16.6 57.5004 15.1999 57.1004 12.8999L55.9004 4.99998C55.5004 2.69997 56.4004 0.999993 58.7004 0.69999C61.2004 0.399987 62.5004 1.79995 62.8004 4.09995Z" fill="#BBACCF"/>
<path d="M67.6004 0.200006L68.2004 15.6L66.5004 15.7L65.9004 0.299981L67.6004 0.200006Z" fill="#BBACCF"/>
<path d="M72.4004 15.6L73.4004 1.79998L70.6004 1.59997L70.7004 -5.96223e-06L78.1004 0.499995L78.0004 2.09997L75.2004 1.89996L74.2004 15.7L72.4004 15.6Z" fill="#BBACCF"/>
<path d="M79.8004 13.4L78.5004 16.3L77.0004 16L83.2004 1.59997L85.6004 2.09997L85.1004 17.8L83.4004 17.4L83.5004 14.2L79.8004 13.4ZM80.3004 12L83.7004 12.7L83.9004 3.59997L80.3004 12Z" fill="#BBACCF"/>
<path d="M86.5004 18.3L92.2004 4L93.8004 4.59997L88.7004 17.5L92.8004 19.1L92.2004 20.6L86.5004 18.3Z" fill="#BBACCF"/>
<path d="M107 30.8L105.9 29.7L117.1 19.1L118.6 20.7L113 31L121.1 23.3L122.1 24.4L110.9 35L109.7 33.7L116 22.3L107 30.8Z" fill="#BBACCF"/>
<path d="M115.6 36L112.7 37.2L111.8 35.9L126.2 29.8L127.6 31.9L116.5 42.9L115.5 41.5L117.7 39.3L115.6 36ZM117 35.4L118.9 38.2L125.3 31.8L117 35.4Z" fill="#BBACCF"/>
<path d="M132.6 41C133.6 43.2 132.9 44.6 130.8 45.6L129.7 46.1C128.2 46.8 126.9 46.7 126 45.7C126.2 47.2 125.4 48.1 123.9 48.8L121.7 49.8C121.1 50.1 120.5 50.4 120.1 50.8L119.4 49.2C119.7 48.8 120 48.6 121 48.2L123.2 47.2C124.8 46.5 125 45.5 124.4 44.2L123.9 43.1L117.9 45.8L117.2 44.2L131.2 37.9L132.6 41ZM125.8 43.6C126.4 44.8 127.1 45.4 128.6 44.7L129.9 44.1C131.2 43.5 131.6 42.8 131.1 41.6L130.4 40.1L125.2 42.4L125.8 43.6Z" fill="#BBACCF"/>
<path d="M136.4 51.5C137 53.8 136.1 55.1 133.9 55.7L132.7 56C131.1 56.4 129.9 56.1 129.1 55C129.1 56.5 128.1 57.3 126.5 57.7L124.2 58.3C123.5 58.5 122.9 58.7 122.5 59.1L122 57.4C122.4 57.1 122.7 56.9 123.7 56.6L126 56C127.7 55.5 128 54.6 127.6 53.2L127.3 52L120.9 53.7L120.5 52L135.4 48L136.4 51.5ZM129.2 53C129.6 54.3 130.2 55 131.8 54.6L133.2 54.2C134.5 53.8 135.1 53.2 134.8 51.9L134.4 50.3L128.9 51.8L129.2 53Z" fill="#BBACCF"/>
<path d="M126 62.1L122.9 61.8L122.7 60.2L138.3 61.7L138.5 64.2L123.5 68.6L123.3 66.9L126.3 66L126 62.1ZM127.5 62.1L127.8 65.5L136.5 62.9L127.5 62.1Z" fill="#BBACCF"/>
<path d="M123.3 72.2L137.1 73.1L137.3 70.3L138.9 70.4L138.4 77.8L136.8 77.7L137 74.9L123.2 74L123.3 72.2Z" fill="#BBACCF"/>
<path d="M137.6 82.5L122.4 79.8L122.7 78.1L137.9 80.8L137.6 82.5Z" fill="#BBACCF"/>
<path d="M136.4 87.5L122.9 86L135 92.3L134.5 93.8L120.6 86.6L121.3 84.2L136.9 85.9L136.4 87.5Z" fill="#BBACCF"/>
<path d="M124.5 99.2L123.1 98.5L124.8 95.1L119.9 92.7L117.9 96.8L116.5 96.1L119.3 90.4L133.1 97.2L130.3 102.9L128.9 102.2L130.9 98.1L126.2 95.8L124.5 99.2Z" fill="#BBACCF"/>
<path d="M119.201 104C119.301 104 119.501 104 119.601 104.1C119.901 104.3 120.001 104.8 119.801 105.1C108.201 121.5 89.4007 131.3 69.3007 131.3C68.9007 131.3 68.6007 131 68.6007 130.6C68.6007 130.2 68.9007 129.9 69.3007 129.9C88.9007 129.9 107.301 120.3 118.601 104.3C118.801 104.1 119.001 104 119.201 104Z" fill="#BBACCF"/>
<path d="M95.3005 13.6C95.4005 13.6 95.5005 13.6 95.6005 13.7C96.4005 14.1 97.3005 14.5 98.1005 15C101.8 17 105.4 19.3 108.6 22C108.9 22.2 108.9 22.7 108.7 23C108.5 23.3 108 23.3 107.7 23.1C104.5 20.5 101.1 18.2 97.4005 16.3C96.6005 15.9 95.8005 15.5 94.9005 15.1C94.5005 14.9 94.4005 14.5 94.6005 14.2C94.7005 13.8 95.0005 13.6 95.3005 13.6Z" fill="#BBACCF"/>
<path d="M40.1008 15.3001C40.4008 15.3001 40.6008 15.4001 40.7008 15.7001C40.9008 16.0001 40.8008 16.5001 40.4008 16.7001C36.8008 18.7001 33.4008 21.0001 30.3008 23.7001C30.0008 24.0001 29.6008 23.9001 29.3008 23.6001C29.0008 23.3001 29.1008 22.9001 29.4008 22.6001C32.6008 19.9001 36.1008 17.5001 39.8008 15.5001C39.9008 15.3001 40.0008 15.3001 40.1008 15.3001Z" fill="#BBACCF"/>
<path d="M8.40058 71.2999C8.80057 71.2999 9.10059 71.6 9.10059 72C9.30059 76.6 10.0006 81.1 11.2006 85.5C11.3006 85.9 11.1006 86.2999 10.7006 86.3999C10.3006 86.4999 9.90061 86.2999 9.8006 85.8999C8.60061 81.3999 7.90059 76.7 7.7006 72C7.7006 71.6 8.00059 71.2999 8.40058 71.2999Z" fill="#BBACCF"/>
</svg>
