<svg width="140" height="139" viewBox="0 0 140 139" fill="none" xmlns="http://www.w3.org/2000/svg">
<path d="M76.505 15.9L74.205 15.5L74.505 0L76.205 0.299988L76.005 13.5L79.705 0.799988L81.405 1.10004L81.005 14.3L84.705 1.60004L86.205 1.79999L81.805 16.7L79.605 16.3L79.805 5.79999L76.505 15.9Z" fill="#BBACCF"/>
<path d="M93.005 11.4L92.505 12.8L89.005 11.5L87.105 16.7L91.405 18.3L90.905 19.8L84.905 17.6L90.105 3.10004L96.105 5.29999L95.605 6.79999L91.305 5.20001L89.505 10.1L93.005 11.4Z" fill="#BBACCF"/>
<path d="M99.105 24.3L97.205 23L104.305 9.20001L105.705 10.2L99.705 22L108.605 12.2L110.005 13.2L103.905 24.9L112.805 15.1L114.005 16L103.505 27.4L101.605 26.1L106.405 16.7L99.105 24.3Z" fill="#BBACCF"/>
<path d="M114.305 21.4C116.005 19.8 117.905 19.6 119.505 21.3C121.105 23 120.905 24.9 119.205 26.5L113.505 32C111.805 33.6 109.905 33.8 108.305 32.1C106.705 30.4 107.005 28.5 108.605 26.9L114.305 21.4ZM109.705 28.2C108.705 29.2 108.505 30.2 109.405 31.1C110.305 32 111.305 31.9 112.305 30.9L118.205 25.3C119.205 24.3 119.405 23.3 118.505 22.4C117.605 21.5 116.605 21.7 115.605 22.6L109.705 28.2Z" fill="#BBACCF"/>
<path d="M126.505 29.9C127.905 31.9 127.405 33.4 125.605 34.7L124.605 35.4C123.205 36.4 122.005 36.5 120.905 35.6C121.405 37 120.705 38.1 119.405 39L117.405 40.4C116.805 40.8 116.305 41.2 116.105 41.7L115.105 40.3C115.305 39.9 115.605 39.6 116.505 39L118.505 37.6C119.905 36.6 119.905 35.6 119.105 34.5L118.405 33.5L113.005 37.2L112.005 35.8L124.705 27L126.505 29.9ZM120.305 33.7C121.105 34.8 121.905 35.2 123.305 34.3L124.505 33.5C125.605 32.7 125.905 31.9 125.205 30.8L124.205 29.4L119.505 32.6L120.305 33.7Z" fill="#BBACCF"/>
<path d="M123.905 42.6L122.105 42.4L117.405 44.6L116.705 43L130.605 36.4L131.305 38L124.605 41.2L133.105 41.7L133.805 43.3L125.805 42.8L119.905 50L119.105 48.4L123.905 42.6Z" fill="#BBACCF"/>
<path d="M125.005 56H121.805L121.505 54.4L137.205 54.2L137.705 56.6L123.205 62.6L122.905 60.9L125.805 59.7L125.005 56ZM126.505 56L127.205 59.4L135.605 55.9L126.505 56Z" fill="#BBACCF"/>
<path d="M135.205 70.5L133.805 70.6001L133.705 69L135.205 68.9C136.605 68.8 137.405 68.3 137.405 67C137.405 65.8 136.505 65.2 135.105 65.3L127.005 65.6001C125.605 65.7001 124.805 66.3 124.805 67.5C124.805 68.8 125.705 69.3 127.105 69.2L129.105 69.1001L129.205 70.7L127.305 70.8C125.005 70.9 123.405 69.8 123.305 67.5C123.205 65.1 124.705 64 127.005 63.9L135.005 63.6001C137.305 63.5001 138.905 64.6 139.005 66.9C139.005 69.3 137.505 70.4 135.205 70.5Z" fill="#BBACCF"/>
<path d="M138.305 77.8C138.005 80.2 136.705 81.1 134.405 80.8L133.205 80.6C131.505 80.4 130.505 79.7 130.305 78.3C129.705 79.6 128.505 80 126.905 79.8L124.505 79.5C123.805 79.4 123.205 79.4 122.605 79.6L122.805 77.9C123.305 77.8 123.705 77.7 124.705 77.8L127.105 78.1C128.805 78.3 129.505 77.6 129.605 76.1L129.705 74.9L123.205 74.1L123.405 72.4L138.705 74.2L138.305 77.8ZM131.205 76.5C131.005 77.9 131.405 78.7 133.005 78.9L134.505 79.1C135.905 79.3 136.705 78.9 136.805 77.6L137.005 75.9L131.305 75.2L131.205 76.5Z" fill="#BBACCF"/>
<path d="M133.505 84.3C135.805 85 136.905 86.5 136.205 88.8C135.505 91.1 133.805 91.8 131.505 91.1L123.905 88.9C121.705 88.3 120.505 86.7 121.205 84.4C121.905 82.1 123.705 81.4 125.905 82.1L133.505 84.3ZM125.305 83.7C123.905 83.3 123.005 83.7 122.705 84.8C122.405 86 123.005 86.8 124.305 87.2L132.105 89.5C133.405 89.9 134.405 89.6 134.705 88.4C135.005 87.2 134.405 86.4 133.105 86L125.305 83.7Z" fill="#BBACCF"/>
<path d="M127.505 100.5L127.105 100.3L127.805 98.8L128.305 99C129.605 99.6 130.505 99.5 131.005 98.3C131.505 97.2 131.005 96.4 129.805 95.8C126.705 94.3 124.205 98.9 120.305 97C118.205 96 117.305 94.4 118.305 92.2C119.305 90.1 121.105 89.7 123.305 90.7L124.105 91.1L123.405 92.6L122.505 92.2C121.205 91.6 120.305 91.8 119.705 92.9C119.205 94 119.705 94.9 120.905 95.5C124.005 97 126.505 92.4 130.405 94.3C132.605 95.3 133.405 96.9 132.405 99C131.405 101.1 129.605 101.4 127.505 100.5Z" fill="#BBACCF"/>
<path d="M122.105 108.9L121.805 108.7L122.705 107.3L123.105 107.6C124.305 108.4 125.205 108.4 125.905 107.4C126.605 106.4 126.205 105.5 125.105 104.7C122.205 102.8 119.105 106.9 115.505 104.5C113.605 103.2 112.905 101.4 114.205 99.5C115.505 97.5 117.405 97.5 119.305 98.8L120.005 99.3L119.105 100.6L118.305 100.1C117.105 99.3 116.205 99.3 115.505 100.4C114.805 101.4 115.205 102.4 116.305 103.1C119.105 105 122.305 100.9 125.905 103.3C127.905 104.6 128.505 106.4 127.205 108.3C125.905 110.2 124.005 110.2 122.105 108.9Z" fill="#BBACCF"/>
<path d="M118.505 118.6L107.505 107.8L108.705 106.6L119.705 117.4L118.505 118.6Z" fill="#BBACCF"/>
<path d="M104.905 110.2L106.105 109.2L115.805 121.2L114.105 122.6L104.305 116.2L111.305 124.9L110.105 125.9L100.405 113.9L101.805 112.8L112.705 120L104.905 110.2Z" fill="#BBACCF"/>
<path d="M103.405 130C101.305 131.2 99.605 130.5 98.505 128.4L94.705 121.6C93.505 119.6 93.8051 117.7 95.9051 116.6L99.005 114.8L106.605 128.2L103.405 130ZM96.6051 117.9C95.5051 118.5 95.4051 119.5 96.1051 120.7L100.005 127.6C100.705 128.8 101.605 129.2 102.705 128.6L104.305 127.7L98.305 117L96.6051 117.9Z" fill="#BBACCF"/>
<path d="M91.005 122.9C90.505 121.6 89.705 121 88.505 121.4C87.305 121.8 87.105 122.8 87.605 124.1L91.705 135.1L90.205 135.7L86.205 124.7C85.405 122.5 85.905 120.7 88.105 119.9C90.305 119.1 91.905 120.2 92.705 122.4L96.705 133.4L95.105 134L91.005 122.9Z" fill="#BBACCF"/>
<path d="M78.905 134.6L78.805 134.2L80.405 133.9L80.505 134.4C80.805 135.8 81.405 136.5 82.705 136.2C83.905 136 84.305 135.1 84.005 133.7C83.305 130.3 78.205 131 77.305 126.7C76.805 124.4 77.705 122.7 80.005 122.2C82.305 121.7 83.7051 123 84.1051 125.3L84.305 126.2L82.705 126.5L82.505 125.6C82.205 124.2 81.505 123.6 80.305 123.8C79.105 124 78.705 124.9 79.005 126.3C79.705 129.7 84.8051 129 85.6051 133.2C86.1051 135.5 85.305 137.2 83.005 137.6C80.705 138.1 79.405 136.9 78.905 134.6Z" fill="#BBACCF"/>
<path d="M72.805 123.4L73.405 137.2L76.205 137.1L76.305 138.7L68.905 139L68.805 137.4L71.605 137.3L71.005 123.5L72.805 123.4Z" fill="#BBACCF"/>
<path d="M61.905 138.4C59.505 138.1 58.605 136.8 58.905 134.5L59.005 133.3C59.205 131.6 59.905 130.6 61.205 130.4C59.805 129.8 59.4051 128.6 59.6051 127L59.905 124.6C60.005 123.9 60.005 123.3 59.805 122.7L61.505 122.9C61.605 123.4 61.7051 123.8 61.6051 124.8L61.305 127.2C61.105 128.9 61.905 129.6 63.305 129.7L64.505 129.8L65.205 123.3L66.905 123.5L65.205 138.8L61.905 138.4ZM63.1051 131.3C61.7051 131.2 60.905 131.5 60.705 133.2L60.505 134.7C60.405 136.1 60.805 136.9 62.005 137L63.705 137.2L64.305 131.5L63.1051 131.3Z" fill="#BBACCF"/>
<path d="M53.105 136.9L56.505 121.9L58.205 122.3L54.805 137.3L53.105 136.9Z" fill="#BBACCF"/>
<path d="M46.505 127.7L47.005 126.2L50.605 127.4L52.405 122.2L48.005 120.7L48.505 119.2L54.505 121.3L49.405 135.8L43.405 133.7L43.905 132.2L48.305 133.7L50.005 128.7L46.505 127.7Z" fill="#BBACCF"/>
<path d="M35.6051 125.9L35.805 125.5L37.205 126.3L37.005 126.7C36.305 127.9 36.405 128.9 37.505 129.5C38.605 130.1 39.4051 129.6 40.1051 128.4C41.7051 125.3 37.305 122.6 39.305 118.8C40.405 116.7 42.105 115.9 44.205 117C46.305 118.1 46.505 120 45.405 122L45.005 122.8L43.6051 122L44.1051 121.1C44.8051 119.9 44.605 118.9 43.505 118.3C42.405 117.7 41.505 118.2 40.905 119.4C39.305 122.4 43.705 125.1 41.705 129C40.605 131.1 38.905 131.9 36.905 130.8C34.805 129.8 34.5051 128 35.6051 125.9Z" fill="#BBACCF"/>
<path d="M39.205 114.2L39.705 114.6L38.505 116.4L37.105 115.5L38.205 113.9L40.105 112.7L40.705 113.1L39.205 114.2Z" fill="#BBACCF"/>
<path d="M22.005 120.1L32.405 108.7L33.705 109.9L23.305 121.3L22.005 120.1Z" fill="#BBACCF"/>
<path d="M29.905 106.3L30.905 107.5L19.205 117.6L17.805 115.9L23.905 105.9L15.505 113.2L14.505 112.1L26.205 102L27.405 103.3L20.505 114.4L29.905 106.3Z" fill="#BBACCF"/>
<path d="M22.005 95.3L9.70502 101.7L11.005 104.2L9.60504 104.9L6.20502 98.4L7.60504 97.7L8.90503 100.2L21.205 93.8L22.005 95.3Z" fill="#BBACCF"/>
<path d="M12.305 90.7L18.905 88.5L19.405 90.1L4.80499 95L4.30499 93.4L10.905 91.2L9.70502 87.6L3.10504 89.8L2.60504 88.2L17.205 83.3L17.705 84.9L11.105 87.1L12.305 90.7Z" fill="#BBACCF"/>
<path d="M7.30499 77.5L8.80499 77.2L9.40503 80.9L14.805 80L14.005 75.4L15.505 75.1L16.505 81.3L1.30499 83.8L0.304993 77.6L1.80499 77.3L2.60504 81.9L7.80499 81L7.30499 77.5Z" fill="#BBACCF"/>
<path d="M4.00502 62.5H4.40504L4.30501 64.1001H3.80501C2.40501 64.0001 1.60502 64.5 1.50502 65.7C1.40502 66.9 2.20506 67.5001 3.60506 67.6001C7.00506 67.8 7.70502 62.6 12.005 62.9C14.305 63 15.805 64.2001 15.705 66.6001C15.605 69.0001 14.005 70 11.705 69.8H10.805L10.905 68.2L11.905 68.3C13.305 68.4 14.105 67.8 14.205 66.6001C14.305 65.4001 13.5051 64.8 12.1051 64.7C8.70506 64.5 8.10503 69.6 3.70503 69.4C1.30503 69.3 -0.0949814 68.1 0.00501863 65.8C0.105019 63.4 1.70502 62.4 4.00502 62.5Z" fill="#BBACCF"/>
<path d="M1.60504 55C2.10504 52.6 3.705 51.9001 6.005 52.4001L7.80499 52.8C10.205 53.3 11.205 54.7001 10.705 57.1001L10.405 58.6001L16.305 59.8L15.905 61.5L0.804993 58.3L1.60504 55ZM9.20502 56.8C9.50502 55.6 9.00504 54.8 7.60504 54.5L5.60504 54.1001C4.20504 53.8001 3.40502 54.2001 3.20502 55.4001L2.90503 57L9.005 58.3L9.20502 56.8Z" fill="#BBACCF"/>
<path d="M15.405 50.9L18.105 52.6L17.505 54.1L4.20502 45.8L5.10504 43.5L20.505 46.2L19.905 47.8L16.805 47.2L15.405 50.9ZM14.105 50.2L15.305 47L6.40503 45.4L14.105 50.2Z" fill="#BBACCF"/>
<path d="M14.505 33.3L15.705 34L14.905 35.4001L13.605 34.7C12.405 34 11.405 34.1001 10.805 35.1001C10.205 36.2001 10.605 37.1 11.805 37.8L18.805 41.9001C20.005 42.6001 21.005 42.5 21.605 41.5C22.205 40.4 21.805 39.5 20.605 38.8L18.905 37.8L19.705 36.4001L21.405 37.4001C23.405 38.6001 24.205 40.3001 23.005 42.4001C21.805 44.4001 19.905 44.6001 17.905 43.4001L11.005 39.4001C9.00498 38.2001 8.20501 36.5 9.40501 34.5C10.605 32.2 12.505 32.1 14.505 33.3Z" fill="#BBACCF"/>
<path d="M22.405 28.2L23.605 29.2L21.205 32.1L25.505 35.6L28.405 32L29.605 33L25.605 37.9L13.605 28.2L17.605 23.3L18.805 24.3L15.905 27.9L20.005 31.2L22.405 28.2Z" fill="#BBACCF"/>
<path d="M26.6049 26.6998C26.4049 26.6998 26.2049 26.5998 26.1049 26.4998C25.8049 26.1998 25.8049 25.7998 26.1049 25.4998C37.7049 14.0998 53.1049 7.7998 69.4049 7.7998C69.8049 7.7998 70.1049 8.09982 70.1049 8.49982C70.1049 8.89982 69.8049 9.19983 69.4049 9.19983C53.5049 9.19983 38.4049 15.3998 27.1049 26.4998C27.0049 26.5998 26.8049 26.6998 26.6049 26.6998Z" fill="#BBACCF"/>
</svg>
